<?xml version="1.0" encoding="utf-8"?>
<!-- Generator: Adobe Illustrator 19.1.0, SVG Export Plug-In . SVG Version: 6.00 Build 0)  -->
<svg version="1.1" id="Layer_1" xmlns="http://www.w3.org/2000/svg" xmlns:xlink="http://www.w3.org/1999/xlink" x="0px" y="0px"
	 viewBox="450 -450 1000 1000" style="enable-background:new 450 -450 1000 1000;" xml:space="preserve">
<style type="text/css">
	.st0{fill:#FFD738;}
	.st1{fill:#191A1B;}
	.st2{fill:none;stroke:#191A1B;stroke-width:13;stroke-miterlimit:10;}
	.st3{fill:none;stroke:#191B1C;stroke-width:8;stroke-miterlimit:10;}
	.st4{fill:none;stroke:#191A1B;stroke-width:8;stroke-miterlimit:10;}
	.st5{fill:#323638;}
	.st6{font-family:'IndieFlower';}
	.st7{font-size:190px;}
	.st8{font-family:'CourierNewPSMT';}
	.st9{font-size:340px;}
</style>
<g id="color">
	<path class="st0" d="M952-381.2c58.5,0,115.2,11.4,168.6,34c51.6,21.8,97.9,53,137.7,92.8c39.8,39.8,71,86.1,92.8,137.7
		c22.6,53.4,34,110.1,34,168.6s-11.4,115.2-34,168.6c-21.8,51.6-53,97.9-92.8,137.7c-39.8,39.8-86.1,71-137.7,92.8
		c-53.4,22.6-110.1,34-168.6,34c-58.5,0-115.2-11.4-168.6-34c-51.6-21.8-97.9-53-137.7-92.8c-39.8-39.8-71-86.1-92.8-137.7
		c-22.6-53.4-34-110.1-34-168.6s11.4-115.2,34-168.6c21.8-51.6,53-97.9,92.8-137.7c39.8-39.8,86.1-71,137.7-92.8
		C836.8-369.8,893.6-381.2,952-381.2 M952-404.2c-251.9,0-456.1,204.2-456.1,456.1S700.1,508,952,508s456.1-204.2,456.1-456.1
		S1204-404.2,952-404.2L952-404.2z"/>
</g>
<g>
	<path class="st1" d="M952-381.5c58,0,114.3,11.5,167.4,34.1c51.2,21.8,97.2,53.1,136.7,92.9s70.5,86.1,92.2,137.8
		c22.4,53.4,33.8,110.2,33.8,168.7s-11.4,115.3-33.8,168.7c-21.7,51.6-52.7,98-92.2,137.8s-85.5,71-136.7,92.9
		c-53,22.6-109.3,34.1-167.4,34.1c-58.1,0-114.3-11.5-167.4-34.1c-51.2-21.8-97.2-53.1-136.7-92.9c-39.5-39.8-70.5-86.1-92.2-137.8
		c-22.4-53.4-33.8-110.2-33.8-168.7s11.4-115.3,33.8-168.7c21.7-51.6,52.7-98,92.2-137.8s85.5-71,136.7-92.9
		C837.7-370,894-381.5,952-381.5 M952-385.5c-239.7,0-434,195.8-434,437.4s194.3,437.4,434,437.4s434-195.8,434-437.4
		S1191.7-385.5,952-385.5L952-385.5z"/>
</g>
<circle class="st2" cx="952" cy="51.9" r="108.4"/>
<line class="st3" x1="645.8" y1="-254.2" x2="873.5" y2="-26.5"/>
<line class="st4" x1="1258.1" y1="-258.1" x2="1028.3" y2="-28.3"/>
<line class="st4" x1="642" y1="358" x2="871.1" y2="128.9"/>
<line class="st4" x1="1259.9" y1="359.9" x2="1028.9" y2="128.9"/>
<g>
	<g>
		<g>
			<path class="st5" d="M1009.4-228.8L979-288.9l-17.6,34.7l5.4,10.4l-8-5.2l-10.2,20.2l-30.4,60.1H979h60.9L1009.4-228.8z
				 M978.4-257.4l-14.7,7.3l5.1-10l10.2-20l10.1,20.1l10.1,20.1L978.4-257.4z"/>
		</g>
	</g>
	<g>
		<g>
			<path class="st5" d="M977.8-233.5l-37.4-64.9L903-233.5l-37.5,64.9h74.9h74.9L977.8-233.5z M939.7-264.4l-24.3,18.6l12.5-21.6
				l12.5-21.6l12.4,21.7l12.4,21.6L939.7-264.4z"/>
		</g>
	</g>
</g>
<g>
	<path class="st1" d="M952-391.2c59.8,0,117.9,11.7,172.5,34.8c52.8,22.3,100.2,54.3,140.9,95s72.7,88.1,95,140.9
		c23.1,54.6,34.8,112.7,34.8,172.5s-11.7,117.9-34.8,172.5c-22.3,52.8-54.3,100.2-95,140.9s-88.1,72.7-140.9,95
		C1069.9,483.3,1011.9,495,952,495s-117.9-11.7-172.5-34.8c-52.8-22.3-100.2-54.3-140.9-95c-40.7-40.7-72.7-88.1-95-140.9
		c-23.1-54.6-34.8-112.7-34.8-172.5S520.6-66,543.7-120.6c22.3-52.8,54.3-100.2,95-140.9s88.1-72.7,140.9-95
		C834.2-379.5,892.2-391.2,952-391.2 M952-404.2c-251.9,0-456.1,204.2-456.1,456.1S700.1,508,952,508s456.1-204.2,456.1-456.1
		S1204-404.2,952-404.2L952-404.2z"/>
</g>
<text transform="matrix(1 0 0 1 897.8077 111.8374)" class="st5 st6 st7">R</text>
<text transform="matrix(1 0 0 1 856 427)" class="st8 st9">2</text>
</svg>
