<?xml version="1.0" encoding="utf-8"?>
<!-- Generator: Adobe Illustrator 19.1.0, SVG Export Plug-In . SVG Version: 6.00 Build 0)  -->
<svg version="1.1" id="Layer_1" xmlns="http://www.w3.org/2000/svg" xmlns:xlink="http://www.w3.org/1999/xlink" x="0px" y="0px"
	 viewBox="0 0 1000 1000" style="enable-background:new 0 0 1000 1000;" xml:space="preserve">
<style type="text/css">
	.st0{fill:none;stroke:#000000;stroke-width:13;stroke-miterlimit:10;}
	.st1{display:none;}
	.st2{fill:none;stroke:#000000;stroke-width:8;stroke-miterlimit:10;}
	.st3{fill:#010101;}
	.st4{fill:#FFFFFF;}
	.st5{fill:#010101;stroke:#000000;stroke-width:3;stroke-miterlimit:10;}
	.st6{clip-path:url(#SVGID_2_);fill:#010101;}
	.st7{fill:#010101;stroke:#000000;stroke-width:2;stroke-miterlimit:10;}
</style>
<circle class="st0" cx="502" cy="501.9" r="456.1"/>
<g>
	<g>
		<path d="M933.9,500.6c-0.1,90-27.8,178.6-79.5,252.3c-49.9,71-120.9,126.5-202.2,157.1c-84.7,31.9-179.1,36.2-266.4,12.1
			c-84.8-23.5-161-73.5-216.8-141.5c-56.6-68.9-90.9-154.9-97.6-243.8c-6.8-90.1,14.3-181.3,60.7-259
			c44.6-74.6,111.5-135.2,190.4-171.9c81.7-37.9,174.8-49.1,263.3-32c86.9,16.8,167.5,61.3,228.5,125.5
			c61,64.3,101.4,146.8,114.7,234.4C932.3,456,933.9,478.3,933.9,500.6c0,1.4,4.2,3.7,4.2,2.5c-0.1-46-7.1-91.9-21.3-135.8
			c-13.6-42.2-33.7-82.3-59.4-118.6c-25.1-35.4-55.4-67.1-89.6-93.8c-34.4-26.8-72.8-48.5-113.6-64c-42.4-16.1-87.3-25.5-132.7-27.6
			c-45.7-2.2-91.7,2.8-135.8,14.9c-43,11.8-84.1,30.4-121.4,54.9c-36.6,23.9-69.6,53.4-97.5,87.1c-28.4,34.2-51.5,72.8-68.3,113.9
			c-17.2,42.1-27.7,86.8-31.2,132.1c-3.6,46.3,0.1,93.2,11,138.3C88.8,648,106,689.7,129,728c22.5,37.4,50.7,71.4,83.1,100.7
			c32.4,29.1,69.1,53.5,108.5,71.9c40.5,18.9,83.8,31.4,128.1,37c45.6,5.8,92.2,4.3,137.3-4.4c44.1-8.5,86.8-24,126.1-45.8
			c38.3-21.2,73.4-48.2,103.7-79.8c30.7-32,56.5-68.6,76.2-108.2c20-40.3,33.8-83.6,40.7-128.1c3.5-22.5,5.2-45.3,5.2-68.1
			C938.1,501.7,933.9,499.5,933.9,500.6z"/>
	</g>
</g>
<circle class="st0" cx="502" cy="501.9" r="108.4"/>
<polyline class="st1" points="527,479 509.3,494.5 539.7,555.3 524.8,550.3 496,493.8 514.3,479.7 489.8,457.8 490.3,557.7 
	478.3,565 478.3,438.3 "/>
<line class="st2" x1="195.8" y1="195.8" x2="419.2" y2="419.2"/>
<line class="st2" x1="808.1" y1="191.9" x2="578.3" y2="421.7"/>
<line class="st2" x1="192" y1="808" x2="421.1" y2="578.9"/>
<line class="st2" x1="809.9" y1="809.9" x2="578.9" y2="578.9"/>
<g>
	<g>
		<g>
			<path class="st3" d="M558.4,221.2L528,161.1l-30.4,60.1l-30.4,60.1H528h60.9L558.4,221.2z M527.4,192.6l-14.7,7.3l5.1-10l10.2-20
				l10.1,20.1l10.1,20.1L527.4,192.6z"/>
		</g>
	</g>
	<g>
		<g>
			<path class="st3" d="M527.8,216.5l-37.4-64.9L453,216.5l-37.5,64.9h74.9h74.9L527.8,216.5z M489.7,185.6l-24.3,18.6l12.5-21.6
				l12.5-21.6l12.4,21.7l12.4,21.6L489.7,185.6z"/>
		</g>
	</g>
	<polygon class="st4" points="465.4,204.2 490.5,161.1 515.3,204.4 489.7,185.6 	"/>
</g>
<path class="st5" d="M827.5,481l15.2,4.1c1.2,0.3,2.3,0.2,3.4-0.5c1.1-0.6,1.8-1.5,2.1-2.7c0.3-1.2,0.2-2.3-0.5-3.4
	c-0.6-1.1-1.5-1.8-2.7-2.1l-8.8-2.3l9.2-5.3c1-0.6,1.8-1.5,2.1-2.7c0.3-1.2,0.2-2.3-0.5-3.4c-0.6-1.1-1.5-1.8-2.7-2.1
	c-1.2-0.3-2.3-0.2-3.4,0.5l-9.2,5.3l2.3-8.8c0.3-1.1,0.1-2.3-0.5-3.3c-0.6-1.1-1.5-1.8-2.7-2.1c-1.2-0.3-2.3-0.2-3.4,0.5
	c-1,0.6-1.8,1.5-2.1,2.7l-4.1,15.3c-0.2,0.7-0.3,1.4-0.4,2l-35.8,20.7V451c0.5-0.4,1-0.9,1.5-1.4l11.2-11.2c0.9-0.9,1.3-1.9,1.3-3.2
	c0-1.2-0.4-2.3-1.3-3.1c-0.9-0.9-1.9-1.3-3.2-1.3c-1.2,0-2.3,0.4-3.1,1.3l-6.4,6.4V428c0-1.2-0.5-2.3-1.3-3.2
	c-0.9-0.9-1.9-1.3-3.2-1.3c-1.3,0-2.3,0.4-3.1,1.3c-0.9,0.9-1.3,1.9-1.3,3.2v10.6l-6.4-6.4c-0.9-0.9-1.9-1.3-3.2-1.3
	c-1.2,0-2.3,0.4-3.2,1.3c-0.9,0.9-1.3,1.9-1.3,3.1c0,1.3,0.5,2.3,1.3,3.2l11.2,11.2c0.5,0.6,1,1,1.6,1.4v42.3l-35.9-20.7
	c-0.1-0.6-0.2-1.3-0.4-2l-4.1-15.2c-0.3-1.1-1-2.1-2.1-2.7c-1.1-0.6-2.2-0.7-3.4-0.4c-1.2,0.3-2.1,1-2.7,2.1
	c-0.6,1.1-0.8,2.2-0.5,3.4l2.3,8.8l-9.2-5.3c-1.1-0.6-2.2-0.7-3.4-0.5c-1.2,0.3-2.1,1-2.7,2.1c-0.6,1-0.8,2.2-0.5,3.4
	c0.3,1.1,1,2.1,2.1,2.7l9.2,5.3l-8.8,2.3c-1.2,0.3-2.1,1-2.7,2.1c-0.6,1.1-0.8,2.2-0.5,3.4c0.3,1.2,1,2.1,2.1,2.7
	c1,0.6,2.2,0.8,3.3,0.5l15.4-4.1c0.7-0.2,1.3-0.4,1.9-0.7l35.9,20.7l-34.1,19.7c-0.6-0.3-1.2-0.5-1.9-0.7l-15.3-4.1
	c-1.2-0.3-2.3-0.2-3.4,0.5c-1.1,0.6-1.8,1.5-2.1,2.7c-0.3,1.2-0.2,2.3,0.5,3.4c0.6,1.1,1.5,1.8,2.7,2.1l8.8,2.4l-11.7,6.7
	c-1.1,0.6-1.8,1.5-2.1,2.7c-0.3,1.1-0.2,2.3,0.5,3.3c0.6,1.1,1.5,1.8,2.7,2.1c1.1,0.3,2.3,0.1,3.4-0.5l11.7-6.7l-2.4,8.8
	c-0.3,1.1-0.2,2.3,0.5,3.3c0.6,1.1,1.5,1.8,2.7,2.1c1.2,0.3,2.3,0.2,3.4-0.5c1-0.6,1.8-1.5,2.1-2.7l4.1-15.3c0.2-0.7,0.3-1.4,0.3-2
	l34.1-19.6v38.4c-0.5,0.4-1,0.8-1.5,1.4l-11.2,11.2c-0.9,0.9-1.3,1.9-1.3,3.2c0,1.2,0.4,2.3,1.3,3.1c0.9,0.9,1.9,1.3,3.2,1.3
	c1.2,0,2.3-0.5,3.1-1.3l6.4-6.4V573c0,1.3,0.4,2.3,1.3,3.1c0.9,0.9,1.9,1.3,3.1,1.3c1.2,0,2.3-0.4,3.2-1.3c0.9-0.9,1.3-1.9,1.3-3.1
	v-13.5l6.4,6.4c0.9,0.9,1.9,1.3,3.1,1.3c1.3,0,2.3-0.5,3.2-1.3c0.9-0.9,1.3-1.9,1.3-3.1c0-1.3-0.4-2.3-1.3-3.2l-11.2-11.2
	c-0.5-0.6-1-1-1.5-1.4v-38.4l34,19.6c0.1,0.6,0.2,1.3,0.3,1.9v0.1l4.1,15.2c0.3,1.2,1,2.1,2.1,2.7c1,0.6,2.2,0.7,3.4,0.5
	c1.1-0.3,2.1-1.1,2.7-2.1c0.6-1.1,0.7-2.2,0.5-3.4l-2.3-8.8l11.6,6.7c1,0.6,2.2,0.8,3.4,0.5c1.1-0.3,2.1-1,2.7-2.1
	c0.6-1,0.8-2.2,0.5-3.4c-0.3-1.2-1-2.1-2.1-2.7l-11.7-6.8l8.8-2.3c1.1-0.3,2.1-1,2.7-2.1c0.6-1.1,0.7-2.2,0.5-3.4
	c-0.3-1.2-1-2.1-2.1-2.8c-1-0.6-2.2-0.7-3.4-0.4l-15.3,4.1c-0.7,0.2-1.3,0.4-1.9,0.7l-34-19.6l35.9-20.7
	C826.1,480.5,826.7,480.8,827.5,481z"/>
<g>
	<g>
		<defs>
			
				<rect id="SVGID_1_" x="409.2" y="755.2" transform="matrix(1.962615e-02 -0.9998 0.9998 1.962615e-02 -294.4693 1269.3083)" width="181.6" height="59.3"/>
		</defs>
		<clipPath id="SVGID_2_">
			<use xlink:href="#SVGID_1_"  style="overflow:visible;"/>
		</clipPath>
		<path class="st6" d="M491.1,744.2l0.4-18.9c-4.2,1.3-7.6,3.5-10.6,6.1c-3,2.6-5.4,5.9-7.2,9.7c-0.9,1.9-1.6,4-2.1,6.4
			c-0.5,2.4-0.8,5.1-0.5,7.8c0.3,2.5,0.8,4.7,1.5,6.8c0.7,2.1,1.4,4.1,2.3,6.1c3.3,7.9,7.1,15.3,10.4,23.1c1.7,3.9,3.2,7.9,4.5,12.2
			c0.6,2.2,1.2,4.4,1.4,6.9c0.1,1.3,0.1,2.7,0,4.1c0,1.5-0.1,3-0.1,4.4c0.9,0.9,2.1,1.8,3.4,2.4c1.3,0.6,2.9,1.1,4.7,1.1
			c1.9,0,3.4-0.4,4.8-0.9c1.1-0.5,2.2-1.1,3.1-1.9c0.1-0.1,0.4-0.3,0.4-0.4c0.1-0.2,0.1-0.6,0.1-0.9c0.1-2.7,0.2-5.5,0-7.9
			c0-0.4-0.1-0.9-0.1-1.3c-0.6-6.1-2.1-11.1-3.9-16c-1.5-4.2-3.2-8.2-5-12.2c-0.6-1.3-1.2-2.6-1.8-3.9c-1.2-2.6-2.4-5.2-3.6-7.8
			c-1.2-2.6-2.4-5.3-3.5-8c-0.8-2-1.7-4.1-2.1-6.4c-0.2-0.8-0.2-1.6-0.1-2.6c0.2-1.8,0.6-3.2,1.3-4.5c0.6-1.1,1.3-2.1,2.1-3
			C490.9,744.5,491.1,744.4,491.1,744.2 M508.6,764.6c0-0.2,1.3-61.7,1.2-62.5c0-1.1-0.2-2.1-0.6-2.9c-1-2.4-2.9-4.2-5.6-4.9
			c-2.1-0.6-4.3-0.1-5.8,0.7c-1.5,0.8-2.7,2-3.5,3.5c-0.4,0.7-0.7,1.6-0.9,2.7c-0.1,1-0.1,2.3-0.1,3.4c-0.4,19.5-0.8,39.1-1.1,58.5
			c0,0.3,0.1,0.5,0.2,0.7c1.8,4.1,3.6,7.9,5.5,11.9c1.1-0.6,2.1-1.5,3-2.3c1.9-1.6,3.6-3.4,5.2-5.3c0.8-1,1.6-2,2.3-3
			C508.5,764.9,508.6,764.8,508.6,764.6 M513.8,785.1c2.8-2.4,5.5-5,7.8-8c1.2-1.4,2.3-3,3.3-4.7c2.5-4.2,4.4-8.8,5.1-14.8
			c0.1-1.2,0.3-2.6,0.2-3.8c0-0.5,0-1,0-1.4c0-1.4-0.2-2.7-0.4-4c-0.5-3.3-1.7-6.2-3-8.8c-0.7-1.3-1.4-2.5-2.3-3.7
			c-3.4-4.5-7.7-8-13.4-10.2c-0.1,0-0.2-0.1-0.3-0.1c-0.1,6.1-0.2,12.2-0.4,18.3c0,0.2,0,0.5,0,0.6c0,0.1,0.3,0.3,0.4,0.4
			c0.8,1,1.5,2.2,2.1,3.5c0.6,1.5,1,3.3,0.9,5.3c-0.1,2.1-0.4,3.9-0.9,5.5c-0.5,1.6-1.2,3-2,4.5c-1.5,2.7-3.5,5.1-5.6,7.2
			c-1,1.1-2.2,2.1-3.3,3.1c-1.1,1-2.3,2-3.6,2.8c2.2,4.8,4.7,9.4,6.5,14.4c0.4-0.2,0.5-0.3,0.9-0.5c0.4-0.3,0.8-0.5,1.2-0.8
			C509.4,788.6,511.7,786.9,513.8,785.1 M485,836.6c4.1,2.2,9.1,4,15.6,3.8c3-0.1,5.6-0.7,8.1-1.4c2.4-0.8,4.6-1.8,6.5-3
			c2.9-1.9,5.5-4.1,7.6-6.8c2.1-2.7,3.9-5.7,5-9.5c0.6-1.8,1-3.9,1.2-6.1c0.1-0.7,0.1-1.7,0.1-2.4c0-0.8,0-1.6-0.1-2.3
			c-0.2-2.2-0.7-4.1-1.3-5.9c-0.8-2.4-1.8-4.7-2.8-6.9c-1.1-2.2-2.2-4.4-3.3-6.5c-1.1-2.1-2.3-4.2-3.4-6.3c-0.3,0.2-0.5,0.4-0.7,0.6
			c-1.6,1.6-3.4,3-5.2,4.4c-2.1,1.6-4.2,3.1-6.4,4.5c1.1,2.5,2.4,4.8,3.7,7.2c1.3,2.4,2.5,4.8,3,7.8c0.3,1.6,0.3,3.4,0.1,5
			c-0.2,1.6-0.8,3-1.4,4.1c-1.3,2.4-3.1,4.2-5.4,5.5c-1.2,0.6-2.5,1.1-4,1.4c-1.6,0.3-3.4,0.2-5-0.1c-1.5-0.3-2.8-0.8-4-1.5
			c-1.1-0.7-2.2-1.5-3-2.5c-1.7-1.9-3-4.3-3.4-7.4c-0.4-3.6,0.7-6.7,1.8-9c-0.1-0.4-0.2-0.8-0.3-1.2c-0.8-2.5-1.7-5-2.7-7.4
			c-1.1-2.7-2.3-5.4-3.5-8c-3.5,2.9-6.4,6.4-8.6,10.6c-1.6,3.2-2.8,7-3.1,11.5c-0.1,1.5,0,3.1,0.1,4.6c0.1,1.4,0.3,2.8,0.7,4.1
			c0.9,3.9,2.4,7.1,4.4,9.9C477.6,831.2,481,834.4,485,836.6 M498.2,875.6c1.8,0,3.2-0.4,4.4-1c1.2-0.6,2.2-1.5,3-2.5
			c0.8-1,1.4-2.3,1.7-3.9c0.1-0.8,0.1-1.7,0.2-2.6c0.2-8.2,0.3-16.5,0.5-24.8c0,0,0,0,0,0c-2.6,0.7-5.6,1.2-9,1.1
			c-3.4-0.1-6.3-0.7-8.9-1.5c-0.1,7.3-0.3,14.7-0.4,22c0,1.9-0.2,3.8,0,5.4c0.2,1.5,0.8,2.9,1.5,3.9c0.7,1.1,1.7,2,2.8,2.7
			C495,875.1,496.4,875.6,498.2,875.6"/>
	</g>
</g>
<path class="st7" d="M261.9,507.7c0.9,0.9,2.1,1.4,3.4,1.4c1.2,0,2.4-0.5,3.4-1.4c1.9-1.9,1.9-4.9,0-6.7L230,462.5v-16.9l25.2,25
	c0.9,0.9,2.1,1.4,3.4,1.4c1.2,0,2.4-0.5,3.4-1.4c1.9-1.9,1.9-4.9,0-6.7L228.7,424c-0.4-0.4-1-0.8-1.5-1c-1.2-0.5-2.5-0.5-3.6,0
	c-0.6,0.2-1.1,0.6-1.5,1L188.6,464c-1.9,1.9-1.9,4.9,0,6.7c1.9,1.9,4.9,1.9,6.7,0l25.2-25v16.9L182,501c-1.9,1.9-1.9,4.9,0,6.7
	c1.9,1.9,4.9,1.9,6.7,0l31.8-24.1v15.9L171,549.1c-1.9,1.9-1.9,4.9,0,6.7c1.9,1.9,4.9,1.9,6.7,0l42.8-34.9l0,55.4
	c0,2.6,2.1,4.7,4.7,4.7s4.7-2.1,4.7-4.7l0-55.4l42.8,34.9c0.9,0.9,2.1,1.4,3.4,1.4c1.2,0,2.4-0.5,3.4-1.4c1.9-1.9,1.9-4.9,0-6.7
	L230,499.5v-15.9L261.9,507.7z"/>
</svg>
