<?xml version="1.0" encoding="utf-8"?>
<!-- Generator: Adobe Illustrator 19.1.0, SVG Export Plug-In . SVG Version: 6.00 Build 0)  -->
<svg version="1.1" id="Layer_1" xmlns="http://www.w3.org/2000/svg" xmlns:xlink="http://www.w3.org/1999/xlink" x="0px" y="0px"
	 viewBox="450 -450 1000 1000" style="enable-background:new 450 -450 1000 1000;" xml:space="preserve">
<style type="text/css">
	.st0{display:none;}
	.st1{display:inline;fill:#00AEEF;}
	.st2{fill:none;stroke:#191A1B;stroke-width:13;stroke-miterlimit:10;}
	.st3{fill:none;stroke:#191B1C;stroke-width:8;stroke-miterlimit:10;}
	.st4{fill:none;stroke:#191A1B;stroke-width:8;stroke-miterlimit:10;}
	.st5{fill:#323638;}
	.st6{fill:#323638;stroke:#323638;stroke-width:3;stroke-miterlimit:10;}
	.st7{fill:#323638;stroke:#323638;stroke-width:2;stroke-miterlimit:10;}
	.st8{fill:#191A1B;}
	.st9{font-family:'IndieFlower';}
	.st10{font-size:290px;}
</style>
<g id="color" class="st0">
	<path class="st1" d="M1402-831.2c58.5,0,115.2,11.4,168.6,34c51.6,21.8,97.9,53,137.7,92.8c39.8,39.8,71,86.1,92.8,137.7
		c22.6,53.4,34,110.1,34,168.6s-11.4,115.2-34,168.6c-21.8,51.6-53,97.9-92.8,137.7s-86.1,71-137.7,92.8
		c-53.4,22.6-110.1,34-168.6,34s-115.2-11.4-168.6-34c-51.6-21.8-97.9-53-137.7-92.8c-39.8-39.8-71-86.1-92.8-137.7
		c-22.6-53.4-34-110.1-34-168.6s11.4-115.2,34-168.6c21.8-51.6,53-97.9,92.8-137.7c39.8-39.8,86.1-71,137.7-92.8
		C1286.8-819.8,1343.6-831.2,1402-831.2 M1402-854.2c-251.9,0-456.1,204.2-456.1,456.1S1150.1,58,1402,58s456.1-204.2,456.1-456.1
		S1654-854.2,1402-854.2L1402-854.2z"/>
</g>
<circle class="st2" cx="950" cy="41.1" r="153.7"/>
<line class="st3" x1="643.1" y1="-270.6" x2="845.8" y2="-67.9"/>
<line class="st4" x1="1271.9" y1="-272" x2="1063" y2="-63.1"/>
<line class="st4" x1="643.1" y1="356.8" x2="845.8" y2="154.1"/>
<line class="st4" x1="1274.4" y1="360.7" x2="1064.4" y2="150.7"/>
<g>
	<g>
		<g>
			<path class="st5" d="M1066.5-253.6l-57.8-114.2l-33.4,66l10.4,19.7l-15.3-9.9l-19.5,38.4L893-139.3h115.6h115.6L1066.5-253.6z
				 M1007.6-308l-28,13.9l9.7-19.1l19.4-38l19.2,38.1l19.2,38.1L1007.6-308z"/>
		</g>
	</g>
	<g>
		<g>
			<path class="st5" d="M1006.4-262.5l-71-123.2l-71.1,123.2l-71.1,123.2h142.3h142.3L1006.4-262.5z M934.1-321.2l-46.3,35.4
				l23.8-41l23.8-41l23.6,41.2l23.6,41.1L934.1-321.2z"/>
		</g>
	</g>
</g>
<path class="st6" d="M1333,9.5l27.1,7.2c2.1,0.7,4.1,0.3,6-0.8c1.9-1,3.2-2.7,3.8-4.8s0.3-4.1-0.8-6c-1.1-1.9-2.8-3.2-4.8-3.8
	l-15.6-4.2l16.3-9.4c1.9-1.1,3.2-2.8,3.7-4.8c0.7-2.1,0.3-4.2-0.8-6c-1.1-1.9-2.8-3.2-4.8-3.8c-2.1-0.6-4.2-0.3-6,0.8l-16.3,9.4
	l4.2-15.6c0.6-2,0.2-4.1-0.8-5.9c-1.1-1.9-2.8-3.2-4.8-3.8c-2.1-0.6-4.2-0.3-6.1,0.8c-1.9,1-3.2,2.8-3.7,4.8L1322.5-9
	c-0.3,1.2-0.6,2.4-0.7,3.5l-63.7,36.8v-75.2c0.9-0.7,1.9-1.6,2.8-2.4l19.8-19.8c1.7-1.6,2.3-3.3,2.3-5.6c0-2.1-0.7-4.1-2.3-5.6
	c-1.6-1.7-3.3-2.3-5.6-2.3c-2.1,0-4.1,0.7-5.6,2.3L1258-66.1v-18.8c0-2.1-0.8-4.1-2.3-5.6c-1.6-1.7-3.4-2.3-5.6-2.3
	c-2.2,0-4.1,0.7-5.6,2.3c-1.7,1.6-2.3,3.4-2.3,5.6v18.8l-11.4-11.4c-1.7-1.7-3.4-2.3-5.8-2.3c-2.1,0-4.1,0.7-5.6,2.3
	c-1.6,1.6-2.3,3.4-2.3,5.6c0,2.2,0.8,4.1,2.3,5.6l19.8,19.8c0.9,1,1.9,1.9,2.9,2.4v75.2l-63.9-36.9c-0.2-1.1-0.4-2.2-0.7-3.5
	l-7.2-27.1c-0.6-2-1.9-3.8-3.7-4.9c-1.9-1.1-4-1.3-6-0.7c-2.1,0.6-3.8,1.8-4.8,3.7c-1.1,1.9-1.4,3.9-0.8,6l4.2,15.6l-16.4-9.5
	c-1.9-1-4-1.3-6-0.8c-2.1,0.6-3.8,1.9-4.8,3.8c-1.1,1.9-1.4,3.9-0.8,6c0.6,2,1.8,3.7,3.7,4.8l16.4,9.5l-15.7,4.2
	c-2.1,0.7-3.8,1.9-4.8,3.8c-1.1,1.9-1.4,3.9-0.8,6c0.6,2.1,1.9,3.8,3.8,4.8c1.9,1.1,3.9,1.4,5.9,0.8l27.4-7.3
	c1.2-0.3,2.3-0.7,3.3-1.2l63.9,36.9l-60.7,35.1c-1-0.6-2.1-0.8-3.3-1.2l-27.2-7.3c-2.1-0.6-4.1-0.3-6,0.8s-3.2,2.8-3.8,4.8
	c-0.6,2.1-0.3,4.2,0.8,6c1.1,1.9,2.8,3.2,4.9,3.8l15.6,4.3l-20.8,12c-1.9,1-3.2,2.7-3.7,4.9c-0.7,2-0.3,4.1,0.8,5.9
	c1,1.9,2.7,3.2,4.8,3.8c2,0.6,4.1,0.2,6-0.8l20.8-12l-4.3,15.6c-0.6,2-0.3,4.1,0.8,5.9c1.1,1.9,2.8,3.2,4.8,3.8
	c2.1,0.7,4.2,0.3,6.1-0.8c1.9-1,3.2-2.7,3.7-4.8l7.3-27.2c0.3-1.2,0.6-2.4,0.6-3.5l60.7-35v68.3c-0.9,0.7-1.9,1.4-2.8,2.4
	l-19.9,19.8c-1.7,1.6-2.3,3.3-2.3,5.6c0,2.1,0.7,4.1,2.3,5.6c1.6,1.6,3.3,2.3,5.6,2.3c2.1,0,4.1-0.8,5.6-2.3l11.4-11.4v23.9
	c0,2.2,0.7,4.1,2.3,5.6c1.6,1.7,3.3,2.3,5.6,2.3c2.1,0,4.1-0.7,5.6-2.3c1.6-1.6,2.3-3.3,2.3-5.6v-23.9l11.4,11.4
	c1.6,1.6,3.4,2.3,5.6,2.3s4.1-0.8,5.6-2.3c1.7-1.6,2.3-3.4,2.3-5.6c0-2.2-0.7-4.1-2.3-5.6l-19.8-19.8c-0.9-1-1.9-1.8-2.8-2.4V58.9
	l60.6,35c0.1,1,0.3,2.2,0.7,3.4v0.1l7.3,27.1c0.7,2.1,1.9,3.8,3.8,4.9c1.9,1,3.9,1.3,6,0.8c2-0.6,3.7-1.9,4.8-3.8
	c1-1.9,1.3-3.9,0.8-6l-4.2-15.6l20.7,12c1.9,1.1,3.9,1.4,6,0.8c2-0.6,3.7-1.9,4.8-3.7c1.1-1.9,1.4-3.9,0.8-6
	c-0.6-2.1-1.9-3.8-3.7-4.9L1345.4,91l15.7-4.2c2-0.6,3.7-1.9,4.8-3.7c1.1-1.9,1.3-4,0.8-6c-0.7-2.1-1.9-3.8-3.8-4.9
	c-1.9-1-3.9-1.3-6-0.7l-27.2,7.2c-1.2,0.3-2.3,0.7-3.3,1.2l-60.6-35l63.9-36.8C1330.6,8.6,1331.7,9,1333,9.5z"/>
<path class="st7" d="M724.2,52.5c1.8,1.8,4.2,2.8,6.6,2.8c2.3,0,4.8-1,6.6-2.8c3.6-3.6,3.6-9.5,0-13.1l-75.5-75.5V-69l49.4,49
	c1.8,1.8,4.2,2.8,6.6,2.8c2.5,0,4.8-1,6.6-2.8c3.6-3.6,3.6-9.5,0-13.1l-65.2-78.1c-0.9-0.9-1.9-1.6-3-2c-2.2-1-4.8-1-7.1,0
	c-1.2,0.4-2.1,1.2-3,2l-65.2,78.1c-3.6,3.6-3.6,9.5,0,13.1s9.5,3.6,13.1,0l49.4-49v32.9l-75.5,75.5c-3.6,3.6-3.6,9.5,0,13.1
	s9.5,3.6,13.1,0l62.3-47.1v31.1l-97,97c-3.6,3.6-3.6,9.5,0,13.1c3.6,3.6,9.5,3.6,13.1,0l83.9-68.3v108.5c0,5.1,4.2,9.3,9.3,9.3
	s9.3-4.2,9.3-9.3V78.3l83.9,68.3c1.8,1.8,4.2,2.8,6.6,2.8c2.3,0,4.8-1,6.6-2.8c3.6-3.6,3.6-9.5,0-13.1l-97-97V5.4L724.2,52.5z"/>
<g>
	<path class="st8" d="M958.8-398.1c59.8,0,117.9,11.7,172.5,34.8c52.8,22.3,100.2,54.3,140.9,95c40.7,40.7,72.7,88.1,95,140.9
		c23.1,54.6,34.8,112.7,34.8,172.5s-11.7,117.9-34.8,172.5c-22.3,52.8-54.3,100.2-95,140.9s-88.1,72.7-140.9,95
		c-54.6,22.9-112.6,34.6-172.5,34.6s-117.9-11.7-172.5-34.8c-52.8-22.3-100.2-54.3-140.9-95s-72.7-88.1-95-140.9
		c-23.1-54.6-34.8-112.7-34.8-172.5s11.8-117.8,34.9-172.4c22.3-52.8,54.3-100.2,95-140.9s88.1-72.7,140.9-95
		C841-386.4,899-398.1,958.8-398.1 M958.8-411.1c-251.9,0-456.1,204.2-456.1,456.1s204.2,456.1,456.1,456.1S1414.9,296.9,1414.9,45
		S1210.8-411.1,958.8-411.1L958.8-411.1z"/>
</g>
<text transform="matrix(1 0 0 1 865.7489 132.6796)" class="st5 st9 st10">R</text>
<g>
	<g>
		<path class="st5" d="M938.3,295.6l0.5-24.4c-5.4,1.7-9.8,4.5-13.6,7.8c-3.8,3.3-6.9,7.6-9.3,12.5c-1.1,2.4-2,5.1-2.7,8.2
			c-0.7,3.1-1.1,6.6-0.7,10c0.4,3.2,1.1,6,2,8.7c0.9,2.7,1.8,5.3,2.9,7.8c4.2,10.2,9.1,19.7,13.4,29.7c2.2,5.1,4.2,10.2,5.8,15.7
			c0.7,2.9,1.5,5.6,1.8,8.9c0.2,1.7,0.2,3.5,0,5.3c0,2-0.2,3.8-0.2,5.6c1.1,1.1,2.7,2.3,4.4,3.1c1.7,0.7,3.7,1.4,6,1.4
			c2.4,0,4.4-0.5,6.2-1.1c1.4-0.7,2.9-1.4,4-2.4c0.2-0.2,0.5-0.4,0.5-0.5c0.2-0.2,0.2-0.7,0.2-1.1c0.2-3.5,0.2-7.1,0-10.2
			c0-0.5-0.2-1.1-0.2-1.7c-0.7-7.8-2.7-14.3-5.1-20.6c-2-5.4-4.2-10.6-6.4-15.7c-0.7-1.7-1.5-3.3-2.3-5.1c-1.5-3.3-3.1-6.7-4.6-10
			s-3.1-6.8-4.5-10.3c-1.1-2.6-2.2-5.3-2.7-8.2c-0.2-1.1-0.2-2-0.2-3.3c0.2-2.3,0.7-4.2,1.7-5.8c0.7-1.4,1.7-2.7,2.7-3.8
			C938.1,295.9,938.3,295.8,938.3,295.6 M960.9,321.8c0-0.2,1.7-79.5,1.5-80.4c0-1.4-0.2-2.7-0.7-3.7c-1.3-3.1-3.7-5.4-7.2-6.3
			c-2.7-0.7-5.5-0.2-7.5,0.9c-2,1.1-3.5,2.6-4.5,4.5c-0.5,0.9-0.9,2-1.1,3.5c-0.2,1.3-0.2,2.9-0.2,4.4c-0.5,25.1-1.1,50.4-1.4,75.3
			c0,0.4,0.2,0.7,0.2,0.9c2.3,5.3,4.6,10.2,7.1,15.3c1.4-0.7,2.7-2,3.8-2.9c2.4-2,4.6-4.4,6.7-6.8c1.1-1.3,2-2.6,2.9-3.8
			C960.8,322.2,960.9,322.1,960.9,321.8 M967.6,348.2c3.6-3.1,7.1-6.4,10-10.3c1.5-1.8,2.9-3.8,4.2-6c3.2-5.4,5.6-11.3,6.6-19.1
			c0.2-1.5,0.4-3.3,0.2-4.9c0-0.7,0-1.3,0-1.8c0-1.8-0.2-3.5-0.5-5.1c-0.7-4.2-2.2-8-3.8-11.3c-0.9-1.7-1.8-3.2-2.9-4.7
			c-4.4-5.8-9.9-10.3-17.3-13.1c-0.2,0-0.2-0.2-0.4-0.2c-0.2,7.8-0.2,15.7-0.5,23.6c0,0.2,0,0.7,0,0.7c0,0.1,0.4,0.4,0.5,0.5
			c1.1,1.3,2,2.9,2.7,4.5c0.7,2,1.3,4.2,1.1,6.8c-0.2,2.7-0.5,5.1-1.1,7.1c-0.7,2-1.5,3.8-2.6,5.8c-2,3.5-4.5,6.6-7.2,9.3
			c-1.3,1.4-2.9,2.7-4.2,4c-1.4,1.3-2.9,2.6-4.6,3.6c2.9,6.2,6,12.1,8.4,18.5c0.5-0.2,0.7-0.4,1.1-0.7c0.5-0.4,1.1-0.7,1.5-1.1
			C961.9,352.7,964.9,350.5,967.6,348.2 M930.5,414.5c5.3,2.9,11.7,5.1,20,4.9c3.8-0.2,7.2-0.9,10.4-1.8c3.1-1.1,5.9-2.3,8.4-3.8
			c3.7-2.4,7.1-5.3,9.8-8.7c2.7-3.4,5.1-7.3,6.4-12.2c0.7-2.3,1.3-5.1,1.5-7.8c0.2-0.9,0.2-2.2,0.2-3.1c0-1.1,0-2-0.2-2.9
			c-0.2-2.9-0.9-5.3-1.7-7.6c-1.1-3.1-2.3-6-3.6-8.9c-1.4-2.9-2.9-5.6-4.2-8.4c-1.4-2.7-2.9-5.4-4.4-8.2c-0.4,0.2-0.7,0.5-0.9,0.7
			c-2,2-4.4,3.8-6.7,5.6c-2.7,2-5.4,4-8.2,5.8c1.4,3.2,3.1,6.2,4.7,9.3c1.7,3.1,3.2,6.2,3.8,10c0.4,2,0.4,4.4,0.2,6.4
			s-1.1,3.8-1.8,5.3c-1.7,3.1-4,5.4-6.9,7.1c-1.5,0.7-3.2,1.4-5.1,1.8c-2,0.4-4.4,0.2-6.4-0.2c-2-0.4-3.6-1.1-5.1-2
			c-1.4-0.9-2.9-2-3.8-3.2c-2.2-2.4-3.8-5.5-4.4-9.5c-0.5-4.6,0.9-8.6,2.3-11.6c-0.2-0.5-0.2-1.1-0.4-1.5c-1.1-3.2-2.2-6.4-3.5-9.5
			c-1.4-3.5-2.9-6.9-4.5-10.3c-4.5,3.7-8.2,8.2-11.1,13.6c-2,4.2-3.6,9-4,14.8c-0.2,2,0,4,0.2,5.9c0.2,1.8,0.4,3.6,0.9,5.3
			c1.1,5.1,3.1,9.1,5.6,12.7C921,407.6,925.4,411.6,930.5,414.5 M947.5,464.7c2.3,0,4.2-0.5,5.6-1.3c1.5-0.7,2.9-2,3.8-3.2
			c1.1-1.3,1.8-2.9,2.2-5.1c0.2-1.1,0.2-2.2,0.2-3.3c0.2-10.6,0.4-21.3,0.7-31.9l0,0c-3.3,0.9-7.2,1.5-11.6,1.4
			c-4.4-0.2-8.2-0.9-11.5-2c-0.2,9.4-0.4,18.9-0.5,28.3c0,2.4-0.2,4.9,0,6.9c0.2,2,1.1,3.7,2,5.1c0.9,1.4,2.2,2.6,3.6,3.5
			C943.4,464,945.2,464.7,947.5,464.7"/>
	</g>
</g>
</svg>
