<?xml version="1.0" encoding="utf-8"?>
<!-- Generator: Adobe Illustrator 19.1.0, SVG Export Plug-In . SVG Version: 6.00 Build 0)  -->
<svg version="1.1" id="Layer_1" xmlns="http://www.w3.org/2000/svg" xmlns:xlink="http://www.w3.org/1999/xlink" x="0px" y="0px"
	 viewBox="450 -450 1000 1000" style="enable-background:new 450 -450 1000 1000;" xml:space="preserve">
<style type="text/css">
	.st0{display:none;}
	.st1{display:inline;fill:#00AEEF;}
	.st2{fill:#191A1B;}
	.st3{fill:none;stroke:#191A1B;stroke-width:13;stroke-miterlimit:10;}
	.st4{fill:none;stroke:#191B1C;stroke-width:8;stroke-miterlimit:10;}
	.st5{fill:none;stroke:#191A1B;stroke-width:8;stroke-miterlimit:10;}
	.st6{fill:#323638;}
	.st7{fill:#323638;stroke:#323638;stroke-width:3;stroke-miterlimit:10;}
	.st8{fill:#323638;stroke:#323638;stroke-width:2;stroke-miterlimit:10;}
	.st9{font-family:'IndieFlower';}
	.st10{font-size:190px;}
	.st11{fill:#FFFFFF;}
</style>
<g id="color" class="st0">
	<path class="st1" d="M952-381.2c58.5,0,115.2,11.4,168.6,34c51.6,21.8,97.9,53,137.7,92.8c39.8,39.8,71,86.1,92.8,137.7
		c22.6,53.4,34,110.1,34,168.6s-11.4,115.2-34,168.6c-21.8,51.6-53,97.9-92.8,137.7c-39.8,39.8-86.1,71-137.7,92.8
		c-53.4,22.6-110.1,34-168.6,34c-58.5,0-115.2-11.4-168.6-34c-51.6-21.8-97.9-53-137.7-92.8c-39.8-39.8-71-86.1-92.8-137.7
		c-22.6-53.4-34-110.1-34-168.6s11.4-115.2,34-168.6c21.8-51.6,53-97.9,92.8-137.7c39.8-39.8,86.1-71,137.7-92.8
		C836.8-369.8,893.6-381.2,952-381.2 M952-404.2c-251.9,0-456.1,204.2-456.1,456.1S700.1,508,952,508s456.1-204.2,456.1-456.1
		S1204-404.2,952-404.2L952-404.2z"/>
</g>
<g>
	<path class="st2" d="M952-381.5c58,0,114.3,11.5,167.4,34.1c51.2,21.8,97.2,53.1,136.7,92.9s70.5,86.1,92.2,137.8
		c22.4,53.4,33.8,110.2,33.8,168.7s-11.4,115.3-33.8,168.7c-21.7,51.6-52.7,98-92.2,137.8s-85.5,71-136.7,92.9
		c-53,22.6-109.3,34.1-167.4,34.1c-58.1,0-114.3-11.5-167.4-34.1c-51.2-21.8-97.2-53.1-136.7-92.9c-39.5-39.8-70.5-86.1-92.2-137.8
		c-22.4-53.4-33.8-110.2-33.8-168.7s11.4-115.3,33.8-168.7c21.7-51.6,52.7-98,92.2-137.8s85.5-71,136.7-92.9
		C837.7-370,894-381.5,952-381.5 M952-385.5c-239.7,0-434,195.8-434,437.4s194.3,437.4,434,437.4s434-195.8,434-437.4
		S1191.7-385.5,952-385.5L952-385.5z"/>
</g>
<circle class="st3" cx="952" cy="51.9" r="108.4"/>
<line class="st4" x1="645.8" y1="-254.2" x2="873.5" y2="-26.5"/>
<line class="st5" x1="1258.1" y1="-258.1" x2="1028.3" y2="-28.3"/>
<line class="st5" x1="642" y1="358" x2="871.1" y2="128.9"/>
<line class="st5" x1="1259.9" y1="359.9" x2="1028.9" y2="128.9"/>
<g>
	<g>
		<g>
			<path class="st6" d="M1009.4-228.8L979-288.9l-17.6,34.7l5.4,10.4l-8-5.2l-10.2,20.2l-30.4,60.1H979h60.9L1009.4-228.8z
				 M978.4-257.4l-14.7,7.3l5.1-10l10.2-20l10.1,20.1l10.1,20.1L978.4-257.4z"/>
		</g>
	</g>
	<g>
		<g>
			<path class="st6" d="M977.8-233.5l-37.4-64.9L903-233.5l-37.5,64.9h74.9h74.9L977.8-233.5z M939.7-264.4l-24.3,18.6l12.5-21.6
				l12.5-21.6l12.4,21.7l12.4,21.6L939.7-264.4z"/>
		</g>
	</g>
</g>
<path class="st7" d="M1277.5,31l15.2,4.1c1.2,0.3,2.3,0.2,3.4-0.5c1.1-0.6,1.8-1.5,2.1-2.7c0.3-1.2,0.2-2.3-0.5-3.4
	c-0.6-1.1-1.5-1.8-2.7-2.1l-8.8-2.3l9.2-5.3c1-0.6,1.8-1.5,2.1-2.7s0.2-2.3-0.5-3.4c-0.6-1.1-1.5-1.8-2.7-2.1
	c-1.2-0.3-2.3-0.2-3.4,0.5l-9.2,5.3l2.3-8.8c0.3-1.1,0.1-2.3-0.5-3.3c-0.6-1.1-1.5-1.8-2.7-2.1c-1.2-0.3-2.3-0.2-3.4,0.5
	c-1,0.6-1.8,1.5-2.1,2.7l-4.1,15.3c-0.2,0.7-0.3,1.4-0.4,2L1235,43.4V1c0.5-0.4,1-0.9,1.5-1.4l11.2-11.2c0.9-0.9,1.3-1.9,1.3-3.2
	c0-1.2-0.4-2.3-1.3-3.1c-0.9-0.9-1.9-1.3-3.2-1.3c-1.2,0-2.3,0.4-3.1,1.3l-6.4,6.4V-22c0-1.2-0.5-2.3-1.3-3.2
	c-0.9-0.9-1.9-1.3-3.2-1.3c-1.3,0-2.3,0.4-3.1,1.3c-0.9,0.9-1.3,1.9-1.3,3.2v10.6l-6.4-6.4c-0.9-0.9-1.9-1.3-3.2-1.3
	c-1.2,0-2.3,0.4-3.2,1.3s-1.3,1.9-1.3,3.1c0,1.3,0.5,2.3,1.3,3.2l11.2,11.2c0.5,0.6,1,1,1.6,1.4v42.3l-35.9-20.7
	c-0.1-0.6-0.2-1.3-0.4-2l-4.1-15.2c-0.3-1.1-1-2.1-2.1-2.7c-1.1-0.6-2.2-0.7-3.4-0.4c-1.2,0.3-2.1,1-2.7,2.1s-0.8,2.2-0.5,3.4
	l2.3,8.8l-9.2-5.3c-1.1-0.6-2.2-0.7-3.4-0.5c-1.2,0.3-2.1,1-2.7,2.1c-0.6,1-0.8,2.2-0.5,3.4c0.3,1.1,1,2.1,2.1,2.7l9.2,5.3l-8.8,2.3
	c-1.2,0.3-2.1,1-2.7,2.1c-0.6,1.1-0.8,2.2-0.5,3.4c0.3,1.2,1,2.1,2.1,2.7c1,0.6,2.2,0.8,3.3,0.5l15.4-4.1c0.7-0.2,1.3-0.4,1.9-0.7
	l35.9,20.7L1187.3,71c-0.6-0.3-1.2-0.5-1.9-0.7l-15.3-4.1c-1.2-0.3-2.3-0.2-3.4,0.5c-1.1,0.6-1.8,1.5-2.1,2.7s-0.2,2.3,0.5,3.4
	c0.6,1.1,1.5,1.8,2.7,2.1l8.8,2.4l-11.7,6.7c-1.1,0.6-1.8,1.5-2.1,2.7c-0.3,1.1-0.2,2.3,0.5,3.3c0.6,1.1,1.5,1.8,2.7,2.1
	c1.1,0.3,2.3,0.1,3.4-0.5l11.7-6.7l-2.4,8.8c-0.3,1.1-0.2,2.3,0.5,3.3c0.6,1.1,1.5,1.8,2.7,2.1s2.3,0.2,3.4-0.5
	c1-0.6,1.8-1.5,2.1-2.7l4.1-15.3c0.2-0.7,0.3-1.4,0.3-2l34.1-19.6v38.4c-0.5,0.4-1,0.8-1.5,1.4l-11.2,11.2c-0.9,0.9-1.3,1.9-1.3,3.2
	c0,1.2,0.4,2.3,1.3,3.1c0.9,0.9,1.9,1.3,3.2,1.3c1.2,0,2.3-0.5,3.1-1.3l6.4-6.4V123c0,1.3,0.4,2.3,1.3,3.1c0.9,0.9,1.9,1.3,3.1,1.3
	s2.3-0.4,3.2-1.3c0.9-0.9,1.3-1.9,1.3-3.1v-13.5l6.4,6.4c0.9,0.9,1.9,1.3,3.1,1.3c1.3,0,2.3-0.5,3.2-1.3c0.9-0.9,1.3-1.9,1.3-3.1
	c0-1.3-0.4-2.3-1.3-3.2l-11.2-11.2c-0.5-0.6-1-1-1.5-1.4V58.6l34,19.6c0.1,0.6,0.2,1.3,0.3,1.9v0.1l4.1,15.2c0.3,1.2,1,2.1,2.1,2.7
	c1,0.6,2.2,0.7,3.4,0.5c1.1-0.3,2.1-1.1,2.7-2.1c0.6-1.1,0.7-2.2,0.5-3.4l-2.3-8.8l11.6,6.7c1,0.6,2.2,0.8,3.4,0.5
	c1.1-0.3,2.1-1,2.7-2.1c0.6-1,0.8-2.2,0.5-3.4s-1-2.1-2.1-2.7l-11.7-6.8l8.8-2.3c1.1-0.3,2.1-1,2.7-2.1c0.6-1.1,0.7-2.2,0.5-3.4
	c-0.3-1.2-1-2.1-2.1-2.8c-1-0.6-2.2-0.7-3.4-0.4l-15.3,4.1c-0.7,0.2-1.3,0.4-1.9,0.7l-34-19.6l35.9-20.7
	C1276.1,30.5,1276.7,30.8,1277.5,31z"/>
<path class="st8" d="M711.9,57.7c0.9,0.9,2.1,1.4,3.4,1.4c1.2,0,2.4-0.5,3.4-1.4c1.9-1.9,1.9-4.9,0-6.7L680,12.5V-4.4l25.2,25
	c0.9,0.9,2.1,1.4,3.4,1.4c1.2,0,2.4-0.5,3.4-1.4c1.9-1.9,1.9-4.9,0-6.7L678.7-26c-0.4-0.4-1-0.8-1.5-1c-1.2-0.5-2.5-0.5-3.6,0
	c-0.6,0.2-1.1,0.6-1.5,1l-33.5,40c-1.9,1.9-1.9,4.9,0,6.7c1.9,1.9,4.9,1.9,6.7,0l25.2-25v16.9L632,51c-1.9,1.9-1.9,4.9,0,6.7
	c1.9,1.9,4.9,1.9,6.7,0l31.8-24.1v15.9L621,99.1c-1.9,1.9-1.9,4.9,0,6.7c1.9,1.9,4.9,1.9,6.7,0l42.8-34.9v55.4
	c0,2.6,2.1,4.7,4.7,4.7c2.6,0,4.7-2.1,4.7-4.7V70.9l42.8,34.9c0.9,0.9,2.1,1.4,3.4,1.4c1.2,0,2.4-0.5,3.4-1.4c1.9-1.9,1.9-4.9,0-6.7
	L680,49.5V33.6L711.9,57.7z"/>
<g>
	<path class="st2" d="M952-391.2c59.8,0,117.9,11.7,172.5,34.8c52.8,22.3,100.2,54.3,140.9,95s72.7,88.1,95,140.9
		c23.1,54.6,34.8,112.7,34.8,172.5s-11.7,117.9-34.8,172.5c-22.3,52.8-54.3,100.2-95,140.9s-88.1,72.7-140.9,95
		C1069.9,483.3,1011.9,495,952,495s-117.9-11.7-172.5-34.8c-52.8-22.3-100.2-54.3-140.9-95c-40.7-40.7-72.7-88.1-95-140.9
		c-23.1-54.6-34.8-112.7-34.8-172.5S520.6-66,543.7-120.6c22.3-52.8,54.3-100.2,95-140.9s88.1-72.7,140.9-95
		C834.2-379.5,892.2-391.2,952-391.2 M952-404.2c-251.9,0-456.1,204.2-456.1,456.1S700.1,508,952,508s456.1-204.2,456.1-456.1
		S1204-404.2,952-404.2L952-404.2z"/>
</g>
<text transform="matrix(1 0 0 1 897.8077 111.8374)" class="st6 st9 st10">R</text>
<g>
	<g>
		<path class="st6" d="M976.5,363.8c-6.7,0-13.2-0.6-18.7-1.3c-2-0.2-4.1-0.5-6.1-0.7c-3.1-0.4-6.3-0.8-9.5-1.1
			c-2.3-0.2-4.7-0.5-7-0.7c-1.5-0.2-3-0.3-4.5-0.5c-0.8-0.1-1.5-0.2-2.3-0.3l-1.1-0.1c0,0,0-0.3,0-0.3c-0.1-0.3-0.1-0.7-0.1-1.1
			c0-0.7,0.1-1.4,0.3-2.2c0.4-1.9,1.3-3.7,2.2-5.5l0.3-0.5c1.2-2.5,2.6-5,4.2-7.4c0.4-0.7,0.9-1.4,1.4-2c0.1-0.2,0.2-0.3,0.3-0.5
			c0.1-0.1,0.2-0.2,0.2-0.4l0-0.1c0,0,3.5,0.4,3.5,0.4c3.1,0.3,6.1,0.7,9.2,1l12.7,1.4c6.3,0.7,11,1,15.2,1c4.7,0,8.6-0.4,12-1.2
			c4.2-0.9,7.7-2.6,10.4-4.9c1.2-1,2.2-2,3-3.2c0.4-0.5,0.6-1.1,0.9-1.6c0.2-0.5,0.5-1.1,0.8-1.4c2-1.8,4.2-3.6,6.7-5.4
			c2.3-1.7,4.8-3.4,7.5-5.2c1.2-0.8,2.5-1.6,3.7-2.4c0.3-0.2,0.6-0.4,1-0.6c0.3-0.2,0.7-0.5,1-0.7c0.1,0,0.2-0.1,0.3-0.2
			c0.4,1.5,0.8,3.1,1,4.7c0.4,2.1,0.5,4.3,0.4,6.5c-0.1,2.2-0.4,4.3-0.9,6.4c-0.5,2.1-1.2,4.2-2.1,6.2c-0.9,2-2,3.9-3.3,5.7
			l-0.2,0.3c-6.4,8.9-16.9,14.9-29.5,16.9C985.4,363.5,981.2,363.8,976.5,363.8C976.5,363.8,976.5,363.8,976.5,363.8z"/>
		<path class="st11" d="M1022.9,318.7c0.2,0.8,0.4,1.7,0.5,2.5c0.3,2,0.5,4.1,0.4,6.2c-0.1,2-0.3,4.1-0.8,6.1c-0.5,2-1.2,4-2,5.9
			c-0.9,1.9-1.9,3.7-3.1,5.5l-0.1,0.1l-0.1,0.1c-6.2,8.5-16.3,14.3-28.5,16.2c-3.9,0.6-8.1,0.9-12.7,0.9c-6.6,0-13.1-0.6-18.6-1.2
			c-2-0.2-4.1-0.5-6.1-0.7c-3.1-0.4-6.3-0.8-9.5-1.1l-0.1,0c-2.3-0.2-4.6-0.5-6.9-0.7c-1.8-0.2-3.2-0.4-4.5-0.5
			c-0.7-0.1-1.5-0.2-2.2-0.3c0,0,0,0,0,0c0-0.6,0.1-1.2,0.2-1.9c0.4-1.7,1.2-3.4,2.1-5.2l0.3-0.5c1.2-2.5,2.6-4.9,4.1-7.2
			c0.4-0.7,0.9-1.4,1.4-2c0,0,0.1-0.1,0.1-0.1c0,0,0.1,0,0.1,0l0.1,0c0.8,0.1,1.5,0.2,2.3,0.3c3.1,0.4,6.2,0.7,9.2,1
			c1.6,0.2,3.1,0.3,4.7,0.5c1.5,0.2,3,0.3,4.5,0.5c1.2,0.1,2.3,0.3,3.5,0.4c6.3,0.7,11.1,1,15.4,1c4.8,0,8.8-0.4,12.4-1.2
			c4.5-1,8.2-2.8,11-5.2c1.3-1.1,2.4-2.2,3.2-3.5c0.4-0.6,0.7-1.3,1-1.9c0.1-0.3,0.4-0.8,0.5-0.9c2-1.8,4.1-3.5,6.5-5.3
			c2.3-1.7,4.7-3.4,7.4-5.2c1-0.7,2.2-1.4,3.7-2.3C1022.6,318.9,1022.8,318.8,1022.9,318.7 M1024.4,314.4c-0.5,0-1.2,0.5-1.5,0.7
			c-0.7,0.4-1.3,0.9-2,1.3c-1.3,0.8-2.5,1.6-3.7,2.4c-2.6,1.7-5.1,3.4-7.6,5.3c-2.3,1.7-4.6,3.6-6.8,5.5c-0.8,0.7-1.2,2.3-1.9,3.2
			c-0.8,1.1-1.7,2.1-2.7,2.9c-2.8,2.4-6.3,3.8-9.8,4.6c-3.6,0.8-7.5,1.1-11.7,1.1c-4.9,0-10-0.4-15.1-1c-1.2-0.1-2.3-0.3-3.5-0.4
			c-3.1-0.3-6.2-0.7-9.2-1c-3.1-0.3-6.1-0.7-9.2-1c-0.8-0.1-1.5-0.2-2.3-0.3c-0.4,0-0.8-0.1-1.2-0.1c-0.2,0-0.4-0.1-0.6-0.1
			c0,0-0.1,0-0.1,0c-0.3,0.1-0.6,0.5-0.8,0.8c-0.2,0.3-0.3,0.6-0.5,0.8c-0.5,0.7-0.9,1.4-1.4,2.1c-1.6,2.4-3,5-4.2,7.6
			c-1,2.1-2,4.1-2.6,6.4c-0.2,0.8-0.3,1.7-0.3,2.6c0,0.4,0,0.9,0.1,1.3c0.1,0.4,0.1,1,0.4,1.3c0.2,0.2,0.6,0.2,0.9,0.2
			c0.4,0.1,0.8,0.1,1.1,0.2c0.8,0.1,1.5,0.2,2.3,0.3c1.5,0.2,3,0.4,4.6,0.5c2.3,0.3,4.7,0.5,7,0.7c5.2,0.5,10.4,1.2,15.6,1.8
			c6.3,0.7,12.6,1.3,18.9,1.3c4.4,0,8.8-0.3,13.1-1c11.9-1.9,23.3-7.5,30.5-17.5c0.1-0.1,0.1-0.2,0.2-0.3c1.3-1.9,2.5-3.9,3.4-6
			c0.9-2.1,1.7-4.2,2.2-6.5c0.5-2.2,0.8-4.5,0.9-6.7c0.1-2.3-0.1-4.6-0.5-6.8c-0.3-1.7-0.7-3.4-1.1-5.1c-0.1-0.4-0.2-0.9-0.6-1.1
			C1024.5,314.5,1024.4,314.4,1024.4,314.4L1024.4,314.4z"/>
	</g>
	<g>
		<path class="st6" d="M938.1,394.9c-0.3,0-0.6,0-0.9,0c-11.3-0.3-22.4-5.9-29.7-15c-1.5-1.9-2.8-3.9-3.9-5.9
			c-3.1-5.9-4.5-12.4-4-18.9c0.5-7.1,3.5-13.8,6.4-19.4c6.5-12.7,15.7-24.1,26.8-32.9c11.1-8.8,23.3-14.3,35.3-16
			c2.4-0.3,4.8-0.5,7.2-0.5l0.3,0c2.3,0,4.6,0.1,6.8,0.4c2.4,0.3,4.7,0.7,7,1.3c2.3,0.6,4.6,1.4,6.8,2.3c1,0.4,2,0.8,3,1.3
			c-0.4,0.3-0.8,0.5-1.2,0.8c-7.2,4.7-13.2,9.4-18.4,14.1c-0.1,0.1-0.3,0.3-0.4,0.4c-0.1,0.1-0.3,0.3-0.4,0.4c-0.1,0-0.1,0-0.2,0
			c-0.1,0-0.2,0-0.3,0c-0.8-0.1-1.7-0.1-2.5-0.1c-1.6,0-3.3,0.1-5,0.4c-3.2,0.4-6.4,1.3-9.7,2.6c-11.7,4.6-22.7,13.9-31.1,26.1
			l-1.3,1.9l0.1,0c-2.1,3.2-4,6.6-5.5,9.9c-1.9,4.1-3.4,7.9-2.5,12.2c0.4,2.2,1.5,4.4,3,6.4c2.9,3.9,7.3,6.5,12,7.2
			c0.8,0.1,1.6,0.2,2.3,0.2c3.6,0,7.1-1.3,9.9-3.6c0.6-0.5,1.1-1,1.7-1.6c0.1-0.1,0.2-0.2,0.3-0.4c0,0,0.1-0.1,0.1-0.1
			c0.1,0,0.4,0.1,0.4,0.1l3.4,0.4c2.3,0.3,4.6,0.5,6.9,0.8c3.3,0.3,6.2,0.6,9,0.7c0.9,0,1.9,0.1,2.8,0.1c0.2,0,0.5,0,0.7,0l0,0
			c-0.2,0.5-0.5,1-0.7,1.5c-1.1,2.1-2.2,3.9-3.3,5.6c-0.7,1.1-1.5,2.2-2.2,3.1C959.9,389.7,949.4,394.9,938.1,394.9
			C938.1,394.9,938.1,394.9,938.1,394.9z"/>
		<path class="st11" d="M975.7,287.7c2.2,0,4.4,0.1,6.6,0.4c2.3,0.3,4.6,0.7,6.8,1.3c2.2,0.6,4.5,1.3,6.6,2.2
			c0.1,0.1,0.3,0.1,0.4,0.2c-6.8,4.5-12.5,9-17.5,13.6c-0.1,0.1-0.2,0.2-0.4,0.4c-0.8-0.1-1.7-0.1-2.5-0.1c-1.7,0-3.5,0.1-5.2,0.4
			c-3.3,0.5-6.7,1.4-10,2.7c-11.9,4.7-23.2,14.2-31.8,26.6l-2.6,3.8l0.2,0c-1.7,2.7-3.2,5.5-4.4,8.3c-1.5,3.4-3.6,8-2.6,13.1
			c0.5,2.4,1.6,4.9,3.2,7c3.2,4.2,7.9,7,13,7.8c0.9,0.1,1.7,0.2,2.6,0.2c3.9,0,7.8-1.4,10.8-4c0.6-0.5,1.1-1,1.7-1.6
			c1,0.1,1.9,0.2,2.9,0.3l0.2,0c2.7,0.3,4.8,0.6,6.9,0.8c3.3,0.3,6.2,0.6,9.1,0.7c0.4,0,0.8,0,1.2,0.1c-1,1.8-1.9,3.4-2.9,4.8
			c-0.7,1.1-1.4,2.1-2.2,3.1c-6.8,8.7-16.8,13.7-27.7,13.7c-0.3,0-0.6,0-0.9,0c-10.8-0.3-21.5-5.7-28.5-14.5
			c-1.4-1.8-2.7-3.8-3.7-5.7c-3-5.6-4.3-11.9-3.8-18.1c0.5-6.8,3.4-13.3,6.2-18.8c6.4-12.5,15.5-23.7,26.4-32.4
			c10.9-8.6,22.9-14,34.6-15.7c2.3-0.3,4.7-0.5,7-0.5L975.7,287.7 M975.7,284.7c-0.1,0-0.2,0-0.3,0c-2.5,0-4.9,0.2-7.4,0.5
			c-13.3,1.9-25.6,8-36,16.3c-11.3,9-20.7,20.5-27.2,33.4c-3.2,6.3-6,12.9-6.5,20c-0.5,6.8,1,13.7,4.2,19.8c1.1,2.2,2.5,4.2,4,6.2
			c7.4,9.3,18.8,15.3,30.8,15.6c0.3,0,0.6,0,0.9,0c11.8,0,22.8-5.6,30-14.9c0.8-1,1.6-2.1,2.3-3.2c1.2-1.8,2.3-3.8,3.4-5.7
			c0.3-0.6,0.6-1.2,0.9-1.9c0.2-0.3,0.3-0.6,0.5-0.9c0.1-0.2,0.1-0.5-0.1-0.7c-0.3-0.2-0.8-0.2-1.1-0.2c-0.5,0-0.9,0-1.4,0
			c-0.9,0-1.9-0.1-2.8-0.1c-3-0.2-6-0.4-8.9-0.7c-2.3-0.2-4.6-0.5-6.8-0.8c-1.1-0.1-2.3-0.3-3.4-0.4c-0.2,0-0.5-0.1-0.7-0.1
			c-0.1,0-0.3,0-0.4,0.1c0,0-0.1,0-0.1,0.1c-0.3,0.2-0.5,0.6-0.8,0.9c-0.5,0.5-1,1-1.5,1.5c-2.5,2.1-5.7,3.3-8.9,3.3
			c-0.7,0-1.4-0.1-2.1-0.2c-4.4-0.7-8.4-3.1-11-6.6c-1.3-1.7-2.3-3.7-2.7-5.8c-0.8-4,0.7-7.7,2.4-11.3c1.8-4.1,4.1-7.9,6.6-11.6
			c0,0,0,0,0,0c7.5-10.9,18.1-20.6,30.5-25.5c3-1.2,6.1-2.1,9.3-2.5c1.6-0.2,3.2-0.3,4.8-0.3c0.8,0,1.6,0,2.4,0.1
			c0.2,0,0.5,0.1,0.8,0.1c0.2,0,0.4,0,0.6-0.1c0.4-0.3,0.8-0.8,1.2-1.1c5.6-5.2,11.8-9.7,18.2-14c0.6-0.4,1.2-0.8,1.9-1.2
			c0.3-0.2,0.6-0.4,0.9-0.6c0.2-0.2,0.7-0.4,0.3-0.6c-0.5-0.3-1.1-0.6-1.7-0.8c-1.1-0.5-2.2-1-3.4-1.5c-2.3-0.9-4.6-1.7-7-2.3
			c-2.4-0.6-4.8-1.1-7.2-1.4C980.4,284.9,978.1,284.7,975.7,284.7L975.7,284.7z"/>
	</g>
	<g>
		<path class="st6" d="M976.5,336.4c-1.6,0-3.2,0-4.9-0.1c-1.4-0.1-2.9-0.2-4.3-0.3l-0.6-0.1c-0.4,0-0.9-0.1-1.3-0.1
			c0.1-0.2,0.2-0.5,0.3-0.7c0.1-0.2,0.2-0.4,0.3-0.6c0.5-1.1,1-2,1.6-2.9c0.7-1.3,1.4-2.5,2.2-3.6c0.4-0.6,0.8-1.2,1.2-1.7
			c0,0,0.5-0.7,0.6-0.9l0.6-0.8c0.7-1,1.5-1.9,2.2-2.9c7.9-9.7,18.2-18.2,33.2-27.6c12.8-8,32.4-20.2,32.4-20.2
			c1-0.6,2.1-0.9,3.3-0.9c2.1,0,4,0.9,5.1,2.5c0.6,0.8,1.1,1.5,1.7,2.2c2.8,3.6,5.2,6.8,4.8,9.5c-0.3,1.9-1.9,3.7-5,5.7
			c-6.8,4.5-13.9,8.9-21.2,13l-6.2,3.5c-6,3.6-13.7,8.4-20.5,14c-2.9,2.4-5.6,4.9-8,7.4l-0.4,0.4c-0.5,0.5-1,1.1-1.4,1.6
			c-0.1,0.2-0.3,0.3-0.4,0.5c-0.2,0.2-0.4,0.5-0.5,0.6c-0.9,0.4-1.9,0.8-3.1,1.1c-2.1,0.6-4.6,0.9-7.4,1.1c-0.2,0-0.6,0-0.6,0
			C979,336.3,977.7,336.4,976.5,336.4z"/>
		<path class="st11" d="M1043.2,274.6c1.6,0,3.1,0.7,3.9,1.9c0.6,0.8,1.1,1.5,1.7,2.2c2.6,3.4,4.8,6.3,4.5,8.4
			c-0.2,1.4-1.7,3-4.3,4.7c-6.8,4.5-13.9,8.8-21.1,13l-6.2,3.5l0,0l0,0c-6,3.6-13.8,8.5-20.6,14.1c-3,2.4-5.7,5-8.1,7.6l-0.4,0.4
			c-0.5,0.5-1,1.1-1.4,1.6c-0.2,0.2-0.3,0.4-0.5,0.6c-0.1,0.1-0.1,0.2-0.2,0.2c-0.8,0.3-1.7,0.6-2.6,0.9c-2,0.5-4.4,0.9-7.1,1.1l0,0
			l0,0c-0.1,0-0.3,0-0.4,0l-0.1,0c-1.1,0.1-2.3,0.1-3.6,0.1c-1.5,0-3.1,0-4.8-0.1c-1.3-0.1-2.7-0.2-4-0.3c0.4-0.8,0.8-1.5,1.2-2.2
			c0.7-1.3,1.4-2.4,2.1-3.5c0.4-0.6,0.8-1.1,1.2-1.7c0,0,0.1-0.1,0.2-0.3c0.2-0.2,0.3-0.4,0.4-0.6l0.6-0.8c0.7-0.9,1.4-1.9,2.2-2.8
			c7.8-9.6,17.9-18,32.9-27.3c12.8-8,32.4-20.2,32.4-20.2C1041.4,274.8,1042.3,274.6,1043.2,274.6 M1043.2,271.6
			c-1.4,0-2.8,0.4-4,1.1c0,0-19.6,12.2-32.4,20.2c-12.4,7.7-24.3,16.5-33.6,27.9c-0.8,0.9-1.5,1.9-2.3,2.9c0,0,0,0,0,0
			c-0.1,0-1.1,1.6-1.2,1.7c-0.4,0.6-0.8,1.2-1.2,1.8c-0.8,1.2-1.5,2.4-2.2,3.6c-0.6,1-1.1,2-1.6,3c-0.3,0.5-0.5,1.1-0.8,1.6
			c-0.2,0.4-0.5,0.8-0.3,1.3c0.2,0.6,0.8,0.5,1.3,0.6c0.8,0,1.5,0.1,2.3,0.2c1.5,0.1,2.9,0.2,4.4,0.3c1.7,0.1,3.3,0.1,5,0.1
			c1.2,0,2.5,0,3.7-0.1c0.2,0,0.4,0,0.6,0c2.6-0.2,5.2-0.5,7.7-1.2c1.1-0.3,2.2-0.7,3.3-1.1c0.6-0.3,1-1,1.5-1.5
			c0.6-0.7,1.2-1.3,1.8-1.9c2.4-2.6,5.1-5,7.8-7.3c6.1-5.1,13-9.5,20.3-13.9l6.2-3.5c7.2-4.1,14.4-8.5,21.3-13.1
			c10.3-6.8,4.6-11.9-1.1-19.6C1048,272.7,1045.6,271.6,1043.2,271.6L1043.2,271.6z"/>
	</g>
	<g>
		<path class="st6" d="M897.1,343.4C897.1,343.4,897.1,343.4,897.1,343.4C897.1,343.4,897.1,343.4,897.1,343.4
			C897.1,343.4,897.1,343.4,897.1,343.4z"/>
		<path class="st11" d="M897.1,343.4C897.1,343.4,897.1,343.4,897.1,343.4C897.1,343.4,897.1,343.4,897.1,343.4
			C897.1,343.4,897.1,343.4,897.1,343.4L897.1,343.4z"/>
	</g>
	<g>
		<path class="st6" d="M893.6,350.3c-1.1-0.5-2.2-1-3.3-1.4l-0.6-0.3c-0.4-0.2-0.8-0.4-1.3-0.5c-0.8-0.3-1.6-0.6-2.3-1
			c-2.2-1.1-4.5-1.9-6.4-2.5l-1.1-0.4c-5-1.7-11.7-4.1-13.5-8.8c-1.2-3.2-0.3-8.5,2.1-12c1.1-1.6,3-3.5,5.6-3.5l0.2,0
			c3.1,0.1,6.2,1.4,9.2,2.7c0.8,0.3,1.6,0.7,2.4,1c2.8,1.1,5.4,2.3,7.9,3.5l2,1c1.9,0.9,4,1.9,6,2.8c0.1,0.1,0.2,0.1,0.4,0.2
			c-0.3,0.5-0.6,1.1-0.9,1.6c-0.7,1.3-1.3,2.7-1.9,4c-0.8,1.8-1.6,3.6-2.2,5.3c-0.1,0.3-0.2,0.6-0.3,0.9c-0.1,0.3-0.2,0.5-0.2,0.7
			c-0.2,0.5-0.3,0.9-0.5,1.4c-0.4,1.4-0.8,2.8-1.1,4.2C893.8,349.6,893.7,350,893.6,350.3z"/>
		<path class="st11" d="M872.8,321.4C872.8,321.4,872.8,321.4,872.8,321.4L872.8,321.4c0.1,0,0.1,0,0.2,0c2.9,0.1,5.7,1.3,8.7,2.5
			c0.8,0.3,1.7,0.7,2.5,1c2.7,1.1,5.4,2.3,7.8,3.4c0.7,0.3,1.4,0.7,2.1,1c1.6,0.8,3.2,1.5,4.9,2.3c0,0.1-0.1,0.2-0.1,0.2
			c-0.7,1.3-1.3,2.7-2,4.1c-0.8,1.7-1.5,3.4-2.1,5.1c-0.1,0.3-0.3,0.7-0.5,1.2c-0.1,0.2-0.2,0.4-0.2,0.7c-0.2,0.5-0.3,1-0.5,1.5
			c-0.4,1.2-0.7,2.4-1,3.7c-0.5-0.2-1.1-0.5-1.6-0.7l-0.6-0.3c-0.4-0.2-0.9-0.4-1.3-0.5c-0.8-0.3-1.5-0.6-2.2-1
			c-2.3-1.1-4.6-1.9-6.5-2.6c-0.4-0.1-0.8-0.3-1.1-0.4c-4.7-1.6-11.1-3.8-12.6-7.9c-1.1-2.8-0.2-7.5,1.9-10.6
			C869.3,323,870.8,321.4,872.8,321.4 M872.8,318.4c-7.4,0-11.4,11.5-9.1,17.5c2.2,5.8,10.3,8.2,15.6,10.1c2.1,0.7,4.2,1.5,6.2,2.5
			c1.2,0.6,2.4,1,3.6,1.6c1.6,0.7,3.2,1.4,4.8,2.1c0.2,0.1,0.4,0.2,0.5,0.2c0.1,0,0.1,0,0.2,0c0.3-0.1,0.3-0.5,0.3-0.7
			c0.1-0.7,0.2-1.4,0.4-2.1c0.3-1.4,0.6-2.7,1.1-4.1c0.2-0.7,0.4-1.3,0.7-2c-0.1,0.4-0.3,0.7-0.3,0.7c0,0,0.1-0.2,0.3-0.8
			c0.4-1.1,0.5-1.5,0.5-1.5c0,0-0.3,0.7-0.5,1.3c0.8-2,1.6-4,2.5-6c0.6-1.3,1.2-2.6,1.9-4c0.3-0.7,0.7-1.3,1-1.9
			c0.2-0.4,0.7-1,0.1-1.3c-0.4-0.2-0.9-0.4-1.3-0.6c-2.7-1.2-5.3-2.5-8-3.7c-2.6-1.2-5.3-2.5-8-3.5c-3.9-1.5-7.9-3.6-12.2-3.8
			C873,318.4,872.9,318.4,872.8,318.4L872.8,318.4z M897.1,343.2c0,0,0,0.1,0,0.1C897.1,343.3,897.1,343.3,897.1,343.2L897.1,343.2z
			"/>
	</g>
</g>
</svg>
