<?xml version="1.0" encoding="utf-8"?>
<!-- Generator: Adobe Illustrator 19.1.0, SVG Export Plug-In . SVG Version: 6.00 Build 0)  -->
<svg version="1.1" id="Layer_1" xmlns="http://www.w3.org/2000/svg" xmlns:xlink="http://www.w3.org/1999/xlink" x="0px" y="0px"
	 viewBox="0 0 1000 1000" style="enable-background:new 0 0 1000 1000;" xml:space="preserve">
<style type="text/css">
	.st0{display:none;}
	.st1{display:inline;fill:#00AEEF;}
	.st2{fill:none;stroke:#191A1B;stroke-width:13;stroke-miterlimit:10;}
	.st3{fill:none;stroke:#191B1C;stroke-width:8;stroke-miterlimit:10;}
	.st4{fill:none;stroke:#191A1B;stroke-width:8;stroke-miterlimit:10;}
	.st5{fill:#323638;}
	.st6{fill:#323638;stroke:#323638;stroke-width:3;stroke-miterlimit:10;}
	.st7{fill:#323638;stroke:#323638;stroke-width:2;stroke-miterlimit:10;}
	.st8{fill:#191A1B;}
	.st9{font-family:'IndieFlower';}
	.st10{font-size:230px;}
	.st11{fill:#323738;}
	.st12{fill:#FFFFFF;}
</style>
<g id="color" class="st0">
	<path class="st1" d="M502,68.8c58.5,0,115.2,11.4,168.6,34c51.6,21.8,97.9,53,137.7,92.8c39.8,39.8,71,86.1,92.8,137.7
		c22.6,53.4,34,110.1,34,168.6s-11.4,115.2-34,168.6c-21.8,51.6-53,97.9-92.8,137.7c-39.8,39.8-86.1,71-137.7,92.8
		c-53.4,22.6-110.1,34-168.6,34s-115.2-11.4-168.6-34c-51.6-21.8-97.9-53-137.7-92.8c-39.8-39.8-71-86.1-92.8-137.7
		c-22.6-53.4-34-110.1-34-168.6s11.4-115.2,34-168.6c21.8-51.6,53-97.9,92.8-137.7c39.8-39.8,86.1-71,137.7-92.8
		C386.8,80.2,443.6,68.8,502,68.8 M502,45.8C250.1,45.8,45.9,250,45.9,501.9S250.1,958,502,958s456.1-204.2,456.1-456.1
		S754,45.8,502,45.8L502,45.8z"/>
</g>
<circle class="st2" cx="502" cy="501.9" r="108.4"/>
<line class="st3" x1="186.3" y1="186.3" x2="423.5" y2="423.5"/>
<line class="st4" x1="815.1" y1="184.9" x2="578.3" y2="421.7"/>
<line class="st4" x1="186.3" y1="813.7" x2="421.1" y2="578.9"/>
<line class="st4" x1="817.6" y1="817.6" x2="578.9" y2="578.9"/>
<g>
	<g>
		<g>
			<path class="st5" d="M605.7,213.9l-52.5-103.7l-30.3,59.9l9.4,17.9l-13.9-9l-17.7,34.9l-52.5,103.7h105h105L605.7,213.9z
				 M552.3,164.5l-25.4,12.6l8.8-17.3l17.6-34.5l17.4,34.6l17.4,34.6L552.3,164.5z"/>
		</g>
	</g>
	<g>
		<g>
			<path class="st5" d="M551.2,205.8L486.7,93.9l-64.6,111.9l-64.6,111.9h129.2h129.2L551.2,205.8z M485.5,152.5l-42,32.1l21.6-37.2
				l21.6-37.2l21.4,37.4l21.4,37.3L485.5,152.5z"/>
		</g>
	</g>
</g>
<path class="st6" d="M848.3,470.6l24.5,6.5c1.9,0.6,3.7,0.3,5.4-0.7c1.7-0.9,2.9-2.4,3.4-4.3c0.5-1.9,0.3-3.7-0.7-5.4
	c-1-1.7-2.5-2.9-4.3-3.4l-14.1-3.8l14.7-8.5c1.7-1,2.9-2.5,3.3-4.3c0.6-1.9,0.3-3.8-0.7-5.4c-1-1.7-2.5-2.9-4.3-3.4
	c-1.9-0.5-3.8-0.3-5.4,0.7l-14.7,8.5l3.8-14.1c0.5-1.8,0.2-3.7-0.7-5.3c-1-1.7-2.5-2.9-4.3-3.4c-1.9-0.5-3.8-0.3-5.5,0.7
	c-1.7,0.9-2.9,2.5-3.3,4.3l-6.6,24.6c-0.3,1.1-0.5,2.2-0.6,3.2l-57.5,33.2v-67.9c0.8-0.6,1.7-1.4,2.5-2.2l17.9-17.9
	c1.5-1.4,2.1-3,2.1-5.1c0-1.9-0.6-3.7-2.1-5.1c-1.4-1.5-3-2.1-5.1-2.1c-1.9,0-3.7,0.6-5.1,2.1l-10.3,10.3v-17c0-1.9-0.7-3.7-2.1-5.1
	c-1.4-1.5-3.1-2.1-5.1-2.1c-2,0-3.7,0.6-5.1,2.1c-1.5,1.4-2.1,3.1-2.1,5.1v17l-10.3-10.3c-1.5-1.5-3.1-2.1-5.2-2.1
	c-1.9,0-3.7,0.6-5.1,2.1c-1.4,1.4-2.1,3.1-2.1,5.1c0,2,0.7,3.7,2.1,5.1l17.9,17.9c0.8,0.9,1.7,1.7,2.6,2.2v67.9l-57.7-33.3
	c-0.2-1-0.4-2-0.6-3.2l-6.5-24.5c-0.5-1.8-1.7-3.4-3.3-4.4c-1.7-1-3.6-1.2-5.4-0.6c-1.9,0.5-3.4,1.6-4.3,3.3c-1,1.7-1.3,3.5-0.7,5.4
	l3.8,14.1l-14.8-8.6c-1.7-0.9-3.6-1.2-5.4-0.7c-1.9,0.5-3.4,1.7-4.3,3.4c-1,1.7-1.3,3.5-0.7,5.4c0.5,1.8,1.6,3.3,3.3,4.3l14.8,8.6
	l-14.2,3.8c-1.9,0.6-3.4,1.7-4.3,3.4c-1,1.7-1.3,3.5-0.7,5.4c0.5,1.9,1.7,3.4,3.4,4.3c1.7,1,3.5,1.3,5.3,0.7l24.7-6.6
	c1.1-0.3,2.1-0.6,3-1.1l57.7,33.3l-54.8,31.7c-0.9-0.5-1.9-0.7-3-1.1l-24.6-6.6c-1.9-0.5-3.7-0.3-5.4,0.7c-1.7,1-2.9,2.5-3.4,4.3
	c-0.5,1.9-0.3,3.8,0.7,5.4c1,1.7,2.5,2.9,4.4,3.4l14.1,3.9l-18.8,10.8c-1.7,0.9-2.9,2.4-3.3,4.4c-0.6,1.8-0.3,3.7,0.7,5.3
	c0.9,1.7,2.4,2.9,4.3,3.4c1.8,0.5,3.7,0.2,5.4-0.7l18.8-10.8l-3.9,14.1c-0.5,1.8-0.3,3.7,0.7,5.3c1,1.7,2.5,2.9,4.3,3.4
	c1.9,0.6,3.8,0.3,5.5-0.7c1.7-0.9,2.9-2.4,3.3-4.3l6.6-24.6c0.3-1.1,0.5-2.2,0.5-3.2l54.8-31.6v61.7c-0.8,0.6-1.7,1.3-2.5,2.2
	L745.6,597c-1.5,1.4-2.1,3-2.1,5.1c0,1.9,0.6,3.7,2.1,5.1c1.4,1.4,3,2.1,5.1,2.1c1.9,0,3.7-0.7,5.1-2.1l10.3-10.3v21.6
	c0,2,0.6,3.7,2.1,5.1c1.4,1.5,3,2.1,5.1,2.1c1.9,0,3.7-0.6,5.1-2.1c1.4-1.4,2.1-3,2.1-5.1v-21.6l10.3,10.3c1.4,1.4,3.1,2.1,5.1,2.1
	c2,0,3.7-0.7,5.1-2.1c1.5-1.4,2.1-3.1,2.1-5.1c0-2-0.6-3.7-2.1-5.1l-17.9-17.9c-0.8-0.9-1.7-1.6-2.5-2.2v-61.7l54.7,31.6
	c0.1,0.9,0.3,2,0.6,3.1v0.1l6.6,24.5c0.6,1.9,1.7,3.4,3.4,4.4c1.7,0.9,3.5,1.2,5.4,0.7c1.8-0.5,3.3-1.7,4.3-3.4
	c0.9-1.7,1.2-3.5,0.7-5.4l-3.8-14.1l18.7,10.8c1.7,1,3.5,1.3,5.4,0.7c1.8-0.5,3.3-1.7,4.3-3.3c1-1.7,1.3-3.5,0.7-5.4
	c-0.5-1.9-1.7-3.4-3.3-4.4l-18.8-10.9l14.2-3.8c1.8-0.5,3.3-1.7,4.3-3.3c1-1.7,1.2-3.6,0.7-5.4c-0.6-1.9-1.7-3.4-3.4-4.4
	c-1.7-0.9-3.5-1.2-5.4-0.6l-24.6,6.5c-1.1,0.3-2.1,0.6-3,1.1l-54.7-31.6l57.7-33.2C846.1,469.8,847.1,470.2,848.3,470.6z"/>
<path class="st7" d="M289.7,510.7c1.7,1.7,3.9,2.6,6.2,2.6c2.2,0,4.5-0.9,6.2-2.6c3.4-3.4,3.4-8.9,0-12.3l-70.8-70.8l0-30.9l46.3,46
	c1.7,1.7,3.9,2.6,6.2,2.6s4.5-0.9,6.2-2.6c3.4-3.4,3.4-8.9,0-12.3l-61.2-73.3c-0.8-0.8-1.8-1.5-2.8-1.9c-2.1-0.9-4.5-0.9-6.7,0
	c-1.1,0.4-2,1.1-2.8,1.9l-61.2,73.3c-3.4,3.4-3.4,8.9,0,12.3c3.4,3.4,8.9,3.4,12.3,0l46.3-46l0,30.9l-70.8,70.8
	c-3.4,3.4-3.4,8.9,0,12.3c3.4,3.4,8.9,3.4,12.3,0l58.4-44.2l0,29.2l-91,91c-3.4,3.4-3.4,8.9,0,12.3s8.9,3.4,12.3,0l78.7-64.1
	l0,101.8c0,4.8,3.9,8.7,8.7,8.7s8.7-3.9,8.7-8.7l0-101.8l78.7,64.1c1.7,1.7,3.9,2.6,6.2,2.6c2.2,0,4.5-0.9,6.2-2.6
	c3.4-3.4,3.4-8.9,0-12.3l-91-91l0-29.2L289.7,510.7z"/>
<g>
	<path class="st8" d="M502,58.8c59.8,0,117.9,11.7,172.5,34.8c52.8,22.3,100.2,54.3,140.9,95s72.7,88.1,95,140.9
		c23.1,54.6,34.8,112.7,34.8,172.5s-11.7,117.9-34.8,172.5c-22.3,52.8-54.3,100.2-95,140.9c-40.7,40.7-88.1,72.7-140.9,95
		C619.9,933.3,561.9,945,502,945s-117.9-11.7-172.5-34.8c-52.8-22.3-100.2-54.3-140.9-95c-40.7-40.7-72.7-88.1-95-140.9
		c-23.1-54.6-34.8-112.7-34.8-172.5S70.6,384,93.7,329.4c22.3-52.8,54.3-100.2,95-140.9s88.1-72.7,140.9-95
		C384.2,70.5,442.2,58.8,502,58.8 M502,45.8C250.1,45.8,45.9,250,45.9,501.9S250.1,958,502,958s456.1-204.2,456.1-456.1
		S754,45.8,502,45.8L502,45.8z"/>
</g>
<text transform="matrix(1 0 0 1 434.9489 570.5796)" class="st5 st9 st10">R</text>
<g>
	<g>
		<path class="st11" d="M524.1,809.5c-9.6,0-19-0.9-26.9-1.8c-2.9-0.3-5.8-0.7-8.7-1c-4.5-0.5-9.1-1.1-13.6-1.5l-0.1,0
			c-3.3-0.3-6.6-0.7-9.9-1c-2.2-0.2-4.3-0.5-6.5-0.7c-1.1-0.1-2.2-0.3-3.2-0.4l-1.6-0.2c0,0-0.4,0-0.4,0c0-0.2-0.1-0.4-0.1-0.6
			l0-0.3c-0.1-0.5-0.1-1.1-0.1-1.6c0-1,0.1-2.2,0.4-3.3c0.6-2.8,1.9-5.5,3.2-8.1l0.4-0.8c1.7-3.6,3.8-7.2,6-10.7c0.7-1,1.3-2,2-3
			c0.2-0.2,0.3-0.4,0.4-0.7c0.1-0.2,0.2-0.4,0.4-0.6c0,0,0.2-0.3,0.3-0.4c0.1,0,0.3,0.1,0.4,0.1l5,0.6c4.4,0.5,8.8,1,13.2,1.5
			l13.2,1.4l5,0.6c9,1,15.7,1.4,21.7,1.4c6.6,0,12.2-0.5,17.1-1.7c6-1.3,10.9-3.6,14.6-6.9c1.6-1.4,3-2.9,4.1-4.4
			c0.5-0.7,0.8-1.4,1.2-2.2c0.4-0.9,0.8-1.8,1.3-2.2c2.9-2.6,6.1-5.1,9.6-7.8c3.3-2.5,6.9-4.9,10.8-7.5c1.8-1.2,3.5-2.3,5.3-3.4
			c0.5-0.3,0.9-0.6,1.4-0.9c0.5-0.3,1-0.6,1.5-1c0.1-0.1,0.3-0.2,0.4-0.3c0.2-0.1,0.5-0.3,0.7-0.4c0,0.1,0.1,0.5,0.1,0.5
			c0.6,2.3,1.2,4.7,1.6,7.1c0.5,3.1,0.7,6.2,0.6,9.4c-0.1,3.1-0.5,6.3-1.2,9.3c-0.7,3.1-1.7,6.1-3,9c-1.3,2.9-2.9,5.7-4.8,8.3
			l-0.3,0.4c-9.3,12.8-24.4,21.5-42.7,24.4C536.9,809.1,530.8,809.5,524.1,809.5C524.1,809.5,524.1,809.5,524.1,809.5z"/>
		<path class="st12" d="M591.4,742.1c0.5,1.8,0.8,3.6,1.2,5.5c0.5,3,0.7,6,0.6,9.1c-0.1,3-0.5,6.1-1.2,9c-0.7,3-1.7,5.9-2.9,8.7
			c-1.3,2.8-2.8,5.5-4.6,8.1l-0.2,0.2l-0.1,0.2c-9,12.5-23.9,20.9-41.7,23.8c-5.7,0.9-11.7,1.3-18.3,1.3c-9.5,0-18.9-0.9-26.7-1.8
			c-2.9-0.3-5.9-0.7-8.7-1c-4.5-0.5-9.1-1.1-13.6-1.5l-0.1,0c-3.2-0.3-6.6-0.7-9.9-1c-2.6-0.3-4.6-0.5-6.5-0.7
			c-1.1-0.1-2.2-0.3-3.2-0.4l-0.7-0.1l-0.3,0c-0.1-0.4-0.1-0.8-0.1-1.2c0-0.9,0.1-1.9,0.3-3c0.6-2.6,1.8-5.1,3.1-7.7l0.4-0.8
			c1.7-3.6,3.7-7.1,5.9-10.5c0.7-1,1.3-2,2-2.9c0.2-0.2,0.3-0.5,0.4-0.7c0-0.1,0.1-0.1,0.1-0.2c0.3,0,0.7,0.1,1,0.1l0.1,0
			c1.1,0.1,2.2,0.3,3.3,0.4c4.4,0.5,8.8,1,13.2,1.5c2.2,0.2,4.5,0.5,6.7,0.7c2.2,0.2,4.4,0.5,6.5,0.7c1.7,0.2,3.3,0.4,5,0.6
			c9,1,15.8,1.4,21.9,1.4c6.8,0,12.5-0.6,17.4-1.7c6.2-1.4,11.3-3.8,15.3-7.2c1.7-1.4,3.2-3,4.4-4.7c0.6-0.8,1-1.7,1.3-2.5
			c0.3-0.5,0.7-1.5,0.9-1.7c2.9-2.6,6-5.1,9.5-7.7c3.3-2.5,6.8-4.9,10.7-7.4c1.5-1,3.1-2,5.3-3.4c0.5-0.3,1-0.6,1.4-0.9
			C590.8,742.5,591.1,742.3,591.4,742.1 M592.6,738.1c-0.7,0-1.7,0.7-2.2,1.1c-1,0.6-1.9,1.3-2.9,1.9c-1.8,1.1-3.6,2.3-5.3,3.4
			c-3.7,2.4-7.3,4.9-10.9,7.5c-3.3,2.5-6.6,5.1-9.7,7.9c-1.2,1.1-1.7,3.3-2.7,4.6c-1.1,1.6-2.4,2.9-3.9,4.2c-4,3.4-9,5.4-14,6.5
			c-5.1,1.2-10.8,1.6-16.8,1.6c-7,0-14.3-0.6-21.6-1.4c-1.7-0.2-3.3-0.4-5-0.6c-4.4-0.5-8.8-1-13.2-1.4c-4.4-0.5-8.8-1-13.2-1.5
			c-1.1-0.1-2.2-0.2-3.3-0.4c-0.6-0.1-1.1-0.1-1.6-0.2c-0.3,0-0.6-0.1-0.9-0.1c-0.1,0-0.1,0-0.2,0c-0.5,0.1-0.9,0.8-1.1,1.1
			c-0.3,0.4-0.5,0.8-0.8,1.2c-0.7,1-1.4,2-2,3c-2.2,3.5-4.3,7.1-6.1,10.8c-1.4,2.9-2.9,5.9-3.7,9.1c-0.3,1.2-0.4,2.5-0.4,3.7
			c0,0.6,0.1,1.2,0.2,1.9c0.1,0.5,0.2,1.5,0.6,1.8c0.3,0.3,0.9,0.3,1.3,0.3c0.5,0.1,1.1,0.1,1.6,0.2c1.1,0.1,2.2,0.3,3.3,0.4
			c2.2,0.3,4.3,0.5,6.5,0.7c3.3,0.4,6.7,0.7,10.1,1c7.4,0.7,14.9,1.7,22.3,2.6c9,1,18,1.8,27.1,1.8c6.3,0,12.6-0.4,18.8-1.4
			c17.1-2.7,33.4-10.7,43.7-25c0.1-0.1,0.2-0.3,0.3-0.4c1.9-2.7,3.5-5.6,4.9-8.6c1.3-3,2.4-6.1,3.1-9.2c0.7-3.2,1.2-6.4,1.3-9.6
			c0.1-3.3-0.1-6.5-0.6-9.7c-0.4-2.5-1-4.9-1.6-7.3c-0.2-0.5-0.3-1.3-0.9-1.6C592.9,738.1,592.7,738.1,592.6,738.1L592.6,738.1z"/>
	</g>
	<g>
		<path class="st11" d="M469.1,854c-0.4,0-0.9,0-1.3,0c-16.3-0.4-32.4-8.6-43-21.8c-2.2-2.8-4.1-5.6-5.6-8.6
			c-4.5-8.5-6.5-18-5.8-27.5c0.8-10.3,5.1-19.9,9.2-28c9.3-18.3,22.6-34.7,38.6-47.3c16-12.6,33.6-20.6,50.9-23
			c3.4-0.5,6.9-0.7,10.4-0.8l0.5,0c3.3,0,6.6,0.2,9.9,0.6c3.4,0.4,6.9,1.1,10.1,1.9c3.3,0.9,6.6,2,9.9,3.3c1.6,0.6,3.2,1.4,4.8,2.1
			l0.5,0.3l-0.1,0c-0.9,0.6-1.8,1.2-2.7,1.7c-10.2,6.8-18.8,13.4-26.2,20.1c-0.2,0.2-0.4,0.4-0.6,0.6c-0.3,0.3-0.6,0.7-0.9,0.8
			c-0.2,0-0.4,0-0.6-0.1c-0.2,0-0.3,0-0.5-0.1c-1.2-0.1-2.4-0.1-3.5-0.1c-2.3,0-4.7,0.2-7.1,0.5c-4.5,0.6-9.1,1.9-13.7,3.7
			c-16.6,6.6-32.3,19.8-44.3,37.1l-1.3,1.9l0.1,0c-3.3,4.9-6.1,9.9-8.3,14.9c-2.6,5.8-4.7,11.1-3.5,17.1c0.6,3.1,2.1,6.2,4.1,8.9
			c4.1,5.4,10.2,9.1,16.8,10.1c1.1,0.2,2.2,0.3,3.3,0.3c5,0,9.8-1.8,13.7-5c0.8-0.7,1.5-1.4,2.3-2.2c0.1-0.2,0.3-0.3,0.4-0.5
			c0.1-0.2,0.3-0.4,0.4-0.5c0.2,0,0.4,0.1,0.6,0.1l0.3,0c1.6,0.2,3.3,0.4,4.9,0.6c3.8,0.4,6.9,0.8,9.8,1.1c4.6,0.5,8.9,0.8,12.9,1
			c1.3,0.1,2.7,0.1,4,0.2c0.7,0,1.3,0,2,0h0.1l-0.5,1c-0.3,0.7-0.7,1.4-1,2.1c-1.6,3-3.1,5.6-4.7,8.1c-1.1,1.6-2.2,3.1-3.2,4.5
			C500.7,846.5,485.4,854,469.1,854C469.1,854,469.1,854,469.1,854z"/>
		<path class="st12" d="M522.9,698.5c3.2,0,6.5,0.2,9.7,0.6c3.4,0.4,6.7,1.1,10,1.9c3.2,0.8,6.5,1.9,9.7,3.2
			c0.9,0.4,1.9,0.8,2.8,1.2c-0.2,0.1-0.3,0.2-0.5,0.3c-10.3,6.8-18.9,13.4-26.4,20.3c-0.2,0.2-0.4,0.4-0.6,0.6
			c-0.1,0.1-0.2,0.2-0.3,0.3c-0.2,0-0.3,0-0.5,0c-1.2-0.1-2.4-0.1-3.6-0.1c-2.4,0-4.9,0.2-7.3,0.5c-4.6,0.7-9.3,1.9-14.1,3.8
			c-16.9,6.7-32.8,20.1-45,37.7l-2.6,3.7l0.1,0c-2.8,4.4-5.2,8.8-7.3,13.3c-2.1,4.7-5,11-3.6,18c0.7,3.3,2.2,6.6,4.4,9.5
			c4.3,5.7,10.8,9.6,17.7,10.7c1.2,0.2,2.3,0.3,3.5,0.3c5.3,0,10.5-1.9,14.7-5.4c0.8-0.7,1.6-1.5,2.5-2.4c0.1-0.1,0.2-0.2,0.3-0.3
			c0,0,0.1,0,0.1,0c1.6,0.2,3.1,0.4,4.7,0.6l0.2,0c3.8,0.4,6.9,0.8,9.8,1.1c4.7,0.5,8.9,0.8,12.9,1c1.2,0.1,2.4,0.1,3.8,0.2
			c-0.2,0.3-0.3,0.6-0.5,0.9c-1.6,2.9-3.1,5.5-4.7,7.9c-1,1.6-2.1,3.1-3.2,4.5c-9.9,12.8-24.8,20.2-40.6,20.2c-0.4,0-0.8,0-1.3,0
			c-15.9-0.4-31.5-8.3-41.8-21.2c-2.1-2.7-4-5.5-5.5-8.4c-4.4-8.3-6.3-17.5-5.6-26.7c0.7-10,5-19.5,9-27.5
			c9.2-18.1,22.4-34.3,38.2-46.8c15.8-12.5,33.1-20.3,50.2-22.7c3.4-0.5,6.8-0.7,10.2-0.7L522.9,698.5 M522.9,695.5
			c-0.2,0-0.3,0-0.5,0c-3.5,0-7.1,0.3-10.6,0.8c-19,2.7-36.7,11.5-51.6,23.3c-16.2,12.8-29.7,29.3-39,47.8c-4.5,9-8.6,18.5-9.3,28.6
			c-0.7,9.8,1.4,19.6,6,28.3c1.6,3.1,3.6,6.1,5.8,8.8c10.7,13.4,27,21.9,44.1,22.4c0.4,0,0.9,0,1.3,0c16.9,0,32.6-8,43-21.3
			c1.2-1.5,2.3-3.1,3.3-4.6c1.7-2.6,3.3-5.4,4.8-8.2c0.5-0.9,0.9-1.8,1.3-2.7c0.2-0.4,0.4-0.9,0.7-1.3c0.2-0.3,0.2-0.8-0.2-1
			c-0.5-0.3-1.1-0.2-1.6-0.3c-0.7,0-1.3,0-2,0c-1.3,0-2.7-0.1-4-0.2c-4.3-0.2-8.5-0.6-12.8-1c-3.3-0.3-6.5-0.7-9.8-1.1
			c-1.6-0.2-3.3-0.4-4.9-0.6c-0.3,0-0.7-0.1-1.1-0.1c-0.2,0-0.4,0-0.6,0.1c-0.1,0-0.1,0.1-0.2,0.1c-0.5,0.3-0.8,0.8-1.2,1.2
			c-0.7,0.7-1.4,1.5-2.2,2.1c-3.6,3-8.1,4.7-12.7,4.7c-1,0-2-0.1-3-0.2c-6.2-1-12-4.5-15.8-9.5c-1.9-2.4-3.3-5.3-3.9-8.3
			c-1.2-5.7,1.1-11,3.4-16.1c2.6-5.8,5.9-11.3,9.5-16.6c0,0,0,0-0.1,0c10.8-15.6,25.9-29.5,43.6-36.6c4.3-1.7,8.8-3,13.4-3.6
			c2.3-0.3,4.6-0.5,6.9-0.5c1.1,0,2.3,0,3.4,0.1c0.3,0,0.7,0.1,1.1,0.1c0.3,0,0.6,0,0.8-0.2c0.6-0.4,1.2-1.1,1.7-1.6
			c8.1-7.4,16.9-14,26-20c0.9-0.6,1.8-1.2,2.7-1.7c0.4-0.3,0.9-0.6,1.3-0.9c0.3-0.2,1-0.5,0.4-0.9c-0.8-0.5-1.6-0.8-2.4-1.2
			c-1.6-0.8-3.2-1.5-4.9-2.2c-3.3-1.3-6.6-2.4-10-3.3c-3.4-0.9-6.9-1.5-10.3-2C529.6,695.7,526.3,695.5,522.9,695.5L522.9,695.5z"/>
	</g>
	<g>
		<path class="st11" d="M524,770.2c-2.2,0-4.6-0.1-7.1-0.2c-2-0.1-4.1-0.3-6.2-0.4l-1-0.1c-0.8-0.1-1.6-0.2-2.4-0.2c0,0-0.3,0-0.4,0
			c0.1-0.1,0.2-0.4,0.2-0.4c0.3-0.5,0.5-1,0.7-1.4c0.1-0.3,0.3-0.6,0.4-0.9c0.8-1.5,1.5-2.9,2.2-4.2c1.1-1.9,2.1-3.5,3.1-5.2
			c0.5-0.8,1.1-1.7,1.7-2.5l0.2-0.3c0.4-0.6,0.6-0.9,0.8-1.2l0,0l0.7-0.8c1.1-1.4,2.1-2.7,3.2-4.1c11.4-14,26.1-26.2,47.8-39.7
			c18.4-11.4,46.4-28.9,46.4-28.9c1.5-0.9,3.2-1.4,5-1.4c3.1,0,6.1,1.4,7.9,3.8c0.8,1.1,1.6,2.1,2.4,3.1c4.1,5.3,7.7,9.9,7,14.1
			c-0.5,2.8-2.9,5.7-7.4,8.6c-9.7,6.4-20,12.7-30.4,18.7l-8.9,5.1c-9.1,5.5-19.6,12.1-29.2,20c-4.1,3.4-8,6.9-11.4,10.6l-0.5,0.6
			c-0.7,0.7-1.4,1.5-2,2.2c-0.2,0.2-0.4,0.4-0.5,0.7c-0.3,0.4-0.7,0.9-1,1c-1.4,0.6-2.8,1.1-4.5,1.6c-3.1,0.8-6.6,1.4-10.7,1.6
			c-0.2,0-0.5,0-0.7,0l-0.2,0C527.6,770.1,525.8,770.2,524,770.2z"/>
		<path class="st12" d="M619.6,679.7c2.7,0,5.2,1.2,6.7,3.2c0.8,1.1,1.6,2.1,2.4,3.2c3.9,5.1,7.3,9.4,6.7,13
			c-0.4,2.4-2.6,4.9-6.7,7.6c-9.7,6.4-19.9,12.7-30.3,18.6l-8.9,5.1l0,0l0,0c-8.6,5.2-19.6,12.1-29.4,20.1c-4.2,3.4-8.1,7-11.5,10.7
			l-0.5,0.6c-0.7,0.8-1.4,1.5-2,2.3c-0.2,0.2-0.4,0.5-0.6,0.7c-0.2,0.2-0.4,0.5-0.5,0.6c-1.3,0.6-2.6,1-4.2,1.5
			c-3,0.8-6.4,1.3-10.4,1.6l0,0l0,0c-0.2,0-0.4,0-0.6,0l-0.2,0c-1.7,0.1-3.4,0.1-5.2,0.1c-2.2,0-4.5-0.1-7-0.2
			c-2-0.1-4.1-0.3-6.1-0.4c-0.3,0-0.6-0.1-0.9-0.1c-0.2,0-0.4,0-0.6-0.1c0.1-0.2,0.2-0.5,0.4-0.7c0.8-1.5,1.5-2.9,2.2-4.1
			c1-1.8,2-3.5,3.1-5.1c0.6-0.9,1.1-1.7,1.7-2.5c0,0,0.1-0.2,0.2-0.3c0.2-0.4,0.4-0.6,0.6-0.9l0.9-1.1c1-1.2,2.1-2.7,3.2-4.1
			c11.3-13.8,25.9-26,47.4-39.4c18.4-11.4,46.4-28.9,46.4-28.9C616.6,680.1,618,679.7,619.6,679.7 M619.6,676.7c-2,0-4,0.5-5.8,1.6
			c0,0-28,17.5-46.4,28.9c-17.8,11.1-34.9,23.7-48.2,40c-1.1,1.4-2.2,2.7-3.3,4.1c0,0,0,0,0,0c-0.2,0-1.6,2.2-1.8,2.4
			c-0.6,0.8-1.2,1.7-1.7,2.5c-1.1,1.7-2.2,3.5-3.2,5.2c-0.8,1.4-1.5,2.8-2.3,4.3c-0.4,0.8-0.7,1.5-1.1,2.3c-0.3,0.6-0.7,1.2-0.4,1.8
			c0.3,0.8,1.2,0.8,1.9,0.8c1.1,0.1,2.2,0.2,3.3,0.3c2.1,0.2,4.2,0.3,6.2,0.4c2.4,0.1,4.8,0.2,7.2,0.2c1.8,0,3.6,0,5.3-0.1
			c0.3,0,0.6,0,0.9-0.1c3.7-0.2,7.4-0.7,11-1.7c1.6-0.4,3.2-1,4.7-1.6c0.9-0.4,1.5-1.4,2.1-2.1c0.8-0.9,1.7-1.9,2.5-2.8
			c3.5-3.7,7.3-7.2,11.2-10.4c8.8-7.3,18.7-13.6,29-19.9l8.9-5.1c10.4-5.9,20.6-12.1,30.5-18.7c14.7-9.7,6.6-17.1-1.6-28.1
			C626.5,678.3,623,676.7,619.6,676.7L619.6,676.7z"/>
	</g>
	<g>
		<path class="st11" d="M410.3,779.6C410.3,779.6,410.3,779.5,410.3,779.6C410.3,779.5,410.3,779.5,410.3,779.6
			C410.3,779.6,410.3,779.6,410.3,779.6z"/>
		<path class="st12" d="M410.3,779.5C410.3,779.5,410.3,779.6,410.3,779.5C410.3,779.6,410.3,779.6,410.3,779.5
			C410.3,779.5,410.3,779.5,410.3,779.5L410.3,779.5z"/>
	</g>
	<g>
		<path class="st11" d="M405.9,790.5c-1.8-0.9-3.7-1.7-5.5-2.4l-0.9-0.4c-0.6-0.3-1.2-0.5-1.8-0.8c-1.1-0.5-2.3-0.9-3.3-1.4
			c-3.1-1.5-6.3-2.7-9.1-3.6l-1.6-0.6c-7.2-2.5-17.1-5.9-19.8-13c-1.8-4.8-0.5-12.6,3.1-17.7c1.7-2.4,4.5-5.3,8.6-5.3
			c0.1,0,0.2,0,0.3,0c4.6,0.2,9.1,2,13.5,3.9c1.2,0.5,2.3,1,3.5,1.4c4,1.6,8,3.4,11.4,5c1,0.5,2,0.9,3,1.4c2.8,1.3,5.6,2.7,8.4,3.9
			c0.2,0.1,0.5,0.2,0.7,0.3c0.2,0.1,0.3,0.1,0.5,0.2c0,0.1-0.1,0.1-0.1,0.2c-0.5,0.9-1,1.9-1.5,2.8c-0.9,1.9-1.9,3.8-2.8,5.7
			c-1.1,2.4-2.1,4.9-3.1,7.3c-0.2,0.4-0.4,0.9-0.6,1.6c-0.2,0.5-0.3,0.8-0.4,1.1c-0.2,0.6-0.4,1.3-0.6,1.9c-0.6,2-1.1,4-1.5,6
			C406.2,788.8,406,789.7,405.9,790.5z"/>
		<path class="st12" d="M375.6,746.8C375.6,746.8,375.6,746.8,375.6,746.8c0.1,0,0.2,0,0.3,0c4.3,0.2,8.5,1.9,12.9,3.7
			c1.2,0.5,2.3,1,3.5,1.4c3.9,1.5,7.8,3.3,11.3,5c1,0.5,2,0.9,3,1.4c2.7,1.3,5.4,2.6,8.2,3.8c-0.3,0.5-0.5,1.1-0.8,1.6
			c-1,1.9-1.9,3.8-2.8,5.8c-1.1,2.5-2.1,4.9-3.1,7.3c-0.2,0.4-0.4,1-0.6,1.7c-0.1,0.4-0.3,0.7-0.3,1c-0.2,0.7-0.5,1.4-0.7,2.1
			c-0.6,2-1.2,4.1-1.6,6.2c0,0.2-0.1,0.4-0.1,0.6c-1.3-0.6-2.5-1.1-3.7-1.6l-0.9-0.4c-0.6-0.3-1.2-0.5-1.8-0.8
			c-1.1-0.5-2.2-0.9-3.3-1.4c-3.2-1.5-6.5-2.7-9.2-3.7c-0.5-0.2-1.1-0.4-1.6-0.6c-6.9-2.4-16.4-5.7-18.9-12.1
			c-1.6-4.3-0.3-11.6,2.9-16.3C369.7,749.4,372.1,746.8,375.6,746.8 M375.6,743.8c-10.6,0-16.4,16.5-13.1,25.1
			c3.2,8.3,14.8,11.8,22.3,14.4c3,1.1,6,2.1,8.9,3.6c1.7,0.8,3.5,1.5,5.2,2.2c2.3,1,4.6,1.9,6.9,3c0.2,0.1,0.5,0.2,0.8,0.2
			c0.1,0,0.2,0,0.2,0c0.4-0.2,0.4-0.7,0.4-1.1c0.1-1,0.3-2,0.5-2.9c0.4-2,0.9-3.9,1.5-5.9c0.3-1,0.6-1.9,1-2.9c-0.2,0.6-0.4,1-0.4,1
			c0,0,0.1-0.3,0.4-1.1c0.6-1.6,0.8-2.1,0.8-2.1c0,0-0.4,1-0.7,1.9c1.1-2.9,2.3-5.8,3.5-8.6c0.9-1.9,1.8-3.8,2.7-5.7
			c0.5-0.9,1-1.9,1.5-2.8c0.3-0.6,0.9-1.4,0.1-1.9c-0.6-0.4-1.3-0.6-1.9-0.9c-3.8-1.7-7.6-3.5-11.4-5.3c-3.8-1.8-7.6-3.5-11.5-5
			c-5.6-2.2-11.3-5.1-17.4-5.4C375.8,743.8,375.7,743.8,375.6,743.8L375.6,743.8z M410.4,779.3c0,0.1,0,0.1-0.1,0.2
			C410.3,779.5,410.4,779.4,410.4,779.3L410.4,779.3z"/>
	</g>
</g>
</svg>
