<?xml version="1.0" encoding="utf-8"?>
<!-- Generator: Adobe Illustrator 19.1.0, SVG Export Plug-In . SVG Version: 6.00 Build 0)  -->
<svg version="1.1" id="Layer_1" xmlns="http://www.w3.org/2000/svg" xmlns:xlink="http://www.w3.org/1999/xlink" x="0px" y="0px"
	 viewBox="0 0 1000 1000" style="enable-background:new 0 0 1000 1000;" xml:space="preserve">
<style type="text/css">
	.st0{display:none;}
	.st1{display:inline;fill:#00AEEF;}
	.st2{fill:#191A1B;}
	.st3{fill:none;stroke:#191A1B;stroke-width:13;stroke-miterlimit:10;}
	.st4{fill:none;stroke:#191B1C;stroke-width:8;stroke-miterlimit:10;}
	.st5{fill:none;stroke:#191A1B;stroke-width:8;stroke-miterlimit:10;}
	.st6{fill:#323638;}
	.st7{fill:#323638;stroke:#323638;stroke-width:3;stroke-miterlimit:10;}
	.st8{fill:#323638;stroke:#323638;stroke-width:2;stroke-miterlimit:10;}
	.st9{font-family:'IndieFlower';}
	.st10{font-size:190px;}
</style>
<g id="color" class="st0">
	<path class="st1" d="M502,68.8c58.5,0,115.2,11.4,168.6,34c51.6,21.8,97.9,53,137.7,92.8c39.8,39.8,71,86.1,92.8,137.7
		c22.6,53.4,34,110.1,34,168.6s-11.4,115.2-34,168.6c-21.8,51.6-53,97.9-92.8,137.7c-39.8,39.8-86.1,71-137.7,92.8
		c-53.4,22.6-110.1,34-168.6,34s-115.2-11.4-168.6-34c-51.6-21.8-97.9-53-137.7-92.8c-39.8-39.8-71-86.1-92.8-137.7
		c-22.6-53.4-34-110.1-34-168.6s11.4-115.2,34-168.6c21.8-51.6,53-97.9,92.8-137.7c39.8-39.8,86.1-71,137.7-92.8
		C386.8,80.2,443.6,68.8,502,68.8 M502,45.8C250.1,45.8,45.9,250,45.9,501.9S250.1,958,502,958s456.1-204.2,456.1-456.1
		S754,45.8,502,45.8L502,45.8z"/>
</g>
<g>
	<path class="st2" d="M502,68.5c58,0,114.3,11.5,167.4,34.1c51.2,21.8,97.2,53.1,136.7,92.9c39.5,39.8,70.5,86.1,92.2,137.8
		c22.4,53.4,33.8,110.2,33.8,168.7c0,58.5-11.4,115.3-33.8,168.7c-21.7,51.6-52.7,98-92.2,137.8c-39.5,39.8-85.5,71-136.7,92.9
		c-53,22.6-109.3,34.1-167.4,34.1s-114.3-11.5-167.4-34.1c-51.2-21.8-97.2-53.1-136.7-92.9c-39.5-39.8-70.5-86.1-92.2-137.8
		c-22.4-53.4-33.8-110.2-33.8-168.7c0-58.5,11.4-115.3,33.8-168.7c21.7-51.6,52.7-98,92.2-137.8c39.5-39.8,85.5-71,136.7-92.9
		C387.7,80,444,68.5,502,68.5 M502,64.5c-239.7,0-434,195.8-434,437.4s194.3,437.4,434,437.4s434-195.8,434-437.4
		S741.7,64.5,502,64.5L502,64.5z"/>
</g>
<circle class="st3" cx="502" cy="501.9" r="108.4"/>
<line class="st4" x1="195.8" y1="195.8" x2="423.5" y2="423.5"/>
<line class="st5" x1="808.1" y1="191.9" x2="578.3" y2="421.7"/>
<line class="st5" x1="192" y1="808" x2="421.1" y2="578.9"/>
<line class="st5" x1="809.9" y1="809.9" x2="578.9" y2="578.9"/>
<g>
	<g>
		<g>
			<path class="st6" d="M559.4,221.2L529,161.1l-17.6,34.7l5.4,10.4l-8-5.2l-10.2,20.2l-30.4,60.1H529h60.9L559.4,221.2z
				 M528.4,192.6l-14.7,7.3l5.1-10l10.2-20l10.1,20.1l10.1,20.1L528.4,192.6z"/>
		</g>
	</g>
	<g>
		<g>
			<path class="st6" d="M527.8,216.5l-37.4-64.9L453,216.5l-37.5,64.9h74.9h74.9L527.8,216.5z M489.7,185.6l-24.3,18.6l12.5-21.6
				l12.5-21.6l12.4,21.7l12.4,21.6L489.7,185.6z"/>
		</g>
	</g>
</g>
<path class="st7" d="M827.5,481l15.2,4.1c1.2,0.3,2.3,0.2,3.4-0.5c1.1-0.6,1.8-1.5,2.1-2.7c0.3-1.2,0.2-2.3-0.5-3.4
	c-0.6-1.1-1.5-1.8-2.7-2.1l-8.8-2.3l9.2-5.3c1-0.6,1.8-1.5,2.1-2.7c0.3-1.2,0.2-2.3-0.5-3.4c-0.6-1.1-1.5-1.8-2.7-2.1
	c-1.2-0.3-2.3-0.2-3.4,0.5l-9.2,5.3l2.3-8.8c0.3-1.1,0.1-2.3-0.5-3.3c-0.6-1.1-1.5-1.8-2.7-2.1c-1.2-0.3-2.3-0.2-3.4,0.5
	c-1,0.6-1.8,1.5-2.1,2.7l-4.1,15.3c-0.2,0.7-0.3,1.4-0.4,2l-35.8,20.7V451c0.5-0.4,1-0.9,1.5-1.4l11.2-11.2c0.9-0.9,1.3-1.9,1.3-3.2
	c0-1.2-0.4-2.3-1.3-3.1c-0.9-0.9-1.9-1.3-3.2-1.3c-1.2,0-2.3,0.4-3.1,1.3l-6.4,6.4V428c0-1.2-0.5-2.3-1.3-3.2
	c-0.9-0.9-1.9-1.3-3.2-1.3c-1.3,0-2.3,0.4-3.1,1.3c-0.9,0.9-1.3,1.9-1.3,3.2v10.6l-6.4-6.4c-0.9-0.9-1.9-1.3-3.2-1.3
	c-1.2,0-2.3,0.4-3.2,1.3c-0.9,0.9-1.3,1.9-1.3,3.1c0,1.3,0.5,2.3,1.3,3.2l11.2,11.2c0.5,0.6,1,1,1.6,1.4v42.3l-35.9-20.7
	c-0.1-0.6-0.2-1.3-0.4-2l-4.1-15.2c-0.3-1.1-1-2.1-2.1-2.7c-1.1-0.6-2.2-0.7-3.4-0.4c-1.2,0.3-2.1,1-2.7,2.1
	c-0.6,1.1-0.8,2.2-0.5,3.4l2.3,8.8l-9.2-5.3c-1.1-0.6-2.2-0.7-3.4-0.5c-1.2,0.3-2.1,1-2.7,2.1c-0.6,1-0.8,2.2-0.5,3.4
	c0.3,1.1,1,2.1,2.1,2.7l9.2,5.3l-8.8,2.3c-1.2,0.3-2.1,1-2.7,2.1c-0.6,1.1-0.8,2.2-0.5,3.4c0.3,1.2,1,2.1,2.1,2.7
	c1,0.6,2.2,0.8,3.3,0.5l15.4-4.1c0.7-0.2,1.3-0.4,1.9-0.7l35.9,20.7l-34.1,19.7c-0.6-0.3-1.2-0.5-1.9-0.7l-15.3-4.1
	c-1.2-0.3-2.3-0.2-3.4,0.5c-1.1,0.6-1.8,1.5-2.1,2.7c-0.3,1.2-0.2,2.3,0.5,3.4c0.6,1.1,1.5,1.8,2.7,2.1l8.8,2.4l-11.7,6.7
	c-1.1,0.6-1.8,1.5-2.1,2.7c-0.3,1.1-0.2,2.3,0.5,3.3c0.6,1.1,1.5,1.8,2.7,2.1c1.1,0.3,2.3,0.1,3.4-0.5l11.7-6.7l-2.4,8.8
	c-0.3,1.1-0.2,2.3,0.5,3.3c0.6,1.1,1.5,1.8,2.7,2.1c1.2,0.3,2.3,0.2,3.4-0.5c1-0.6,1.8-1.5,2.1-2.7l4.1-15.3c0.2-0.7,0.3-1.4,0.3-2
	l34.1-19.6v38.4c-0.5,0.4-1,0.8-1.5,1.4l-11.2,11.2c-0.9,0.9-1.3,1.9-1.3,3.2c0,1.2,0.4,2.3,1.3,3.1c0.9,0.9,1.9,1.3,3.2,1.3
	c1.2,0,2.3-0.5,3.1-1.3l6.4-6.4V573c0,1.3,0.4,2.3,1.3,3.1c0.9,0.9,1.9,1.3,3.1,1.3c1.2,0,2.3-0.4,3.2-1.3c0.9-0.9,1.3-1.9,1.3-3.1
	v-13.5l6.4,6.4c0.9,0.9,1.9,1.3,3.1,1.3c1.3,0,2.3-0.5,3.2-1.3c0.9-0.9,1.3-1.9,1.3-3.1c0-1.3-0.4-2.3-1.3-3.2l-11.2-11.2
	c-0.5-0.6-1-1-1.5-1.4v-38.4l34,19.6c0.1,0.6,0.2,1.3,0.3,1.9v0.1l4.1,15.2c0.3,1.2,1,2.1,2.1,2.7c1,0.6,2.2,0.7,3.4,0.5
	c1.1-0.3,2.1-1.1,2.7-2.1c0.6-1.1,0.7-2.2,0.5-3.4l-2.3-8.8l11.6,6.7c1,0.6,2.2,0.8,3.4,0.5c1.1-0.3,2.1-1,2.7-2.1
	c0.6-1,0.8-2.2,0.5-3.4c-0.3-1.2-1-2.1-2.1-2.7l-11.7-6.8l8.8-2.3c1.1-0.3,2.1-1,2.7-2.1c0.6-1.1,0.7-2.2,0.5-3.4
	c-0.3-1.2-1-2.1-2.1-2.8c-1-0.6-2.2-0.7-3.4-0.4l-15.3,4.1c-0.7,0.2-1.3,0.4-1.9,0.7l-34-19.6l35.9-20.7
	C826.1,480.5,826.7,480.8,827.5,481z"/>
<g>
	<g>
		<path class="st6" d="M491.1,744.2l0.4-18.9c-4.2,1.3-7.6,3.5-10.6,6.1c-3,2.6-5.4,5.9-7.2,9.7c-0.9,1.9-1.6,4-2.1,6.4
			c-0.5,2.4-0.8,5.1-0.5,7.8c0.3,2.5,0.8,4.7,1.5,6.8c0.7,2.1,1.4,4.1,2.3,6.1c3.3,7.9,7.1,15.3,10.4,23.1c1.7,3.9,3.2,7.9,4.5,12.2
			c0.6,2.2,1.2,4.4,1.4,6.9c0.1,1.3,0.1,2.7,0,4.1c0,1.5-0.1,3-0.1,4.4c0.9,0.9,2.1,1.8,3.4,2.4c1.3,0.6,2.9,1.1,4.7,1.1
			c1.9,0,3.4-0.4,4.8-0.9c1.1-0.5,2.2-1.1,3.1-1.9c0.1-0.1,0.4-0.3,0.4-0.4c0.1-0.2,0.1-0.6,0.1-0.9c0.1-2.7,0.2-5.5,0-7.9
			c0-0.4-0.1-0.9-0.1-1.3c-0.6-6.1-2.1-11.1-3.9-16c-1.5-4.2-3.2-8.2-5-12.2c-0.6-1.3-1.2-2.6-1.8-3.9c-1.2-2.6-2.4-5.2-3.6-7.8
			c-1.2-2.6-2.4-5.3-3.5-8c-0.8-2-1.7-4.1-2.1-6.4c-0.2-0.8-0.2-1.6-0.1-2.6c0.2-1.8,0.6-3.2,1.3-4.5c0.6-1.1,1.3-2.1,2.1-3
			C490.9,744.5,491.1,744.4,491.1,744.2 M508.6,764.6c0-0.2,1.3-61.7,1.2-62.5c0-1.1-0.2-2.1-0.6-2.9c-1-2.4-2.9-4.2-5.6-4.9
			c-2.1-0.6-4.3-0.1-5.8,0.7c-1.5,0.8-2.7,2-3.5,3.5c-0.4,0.7-0.7,1.6-0.9,2.7c-0.1,1-0.1,2.3-0.1,3.4c-0.4,19.5-0.8,39.1-1.1,58.5
			c0,0.3,0.1,0.5,0.2,0.7c1.8,4.1,3.6,7.9,5.5,11.9c1.1-0.6,2.1-1.5,3-2.3c1.9-1.6,3.6-3.4,5.2-5.3c0.8-1,1.6-2,2.3-3
			C508.5,764.9,508.6,764.8,508.6,764.6 M513.8,785.1c2.8-2.4,5.5-5,7.8-8c1.2-1.4,2.3-3,3.3-4.7c2.5-4.2,4.4-8.8,5.1-14.8
			c0.1-1.2,0.3-2.6,0.2-3.8c0-0.5,0-1,0-1.4c0-1.4-0.2-2.7-0.4-4c-0.5-3.3-1.7-6.2-3-8.8c-0.7-1.3-1.4-2.5-2.3-3.7
			c-3.4-4.5-7.7-8-13.4-10.2c-0.1,0-0.2-0.1-0.3-0.1c-0.1,6.1-0.2,12.2-0.4,18.3c0,0.2,0,0.5,0,0.6c0,0.1,0.3,0.3,0.4,0.4
			c0.8,1,1.5,2.2,2.1,3.5c0.6,1.5,1,3.3,0.9,5.3c-0.1,2.1-0.4,3.9-0.9,5.5c-0.5,1.6-1.2,3-2,4.5c-1.5,2.7-3.5,5.1-5.6,7.2
			c-1,1.1-2.2,2.1-3.3,3.1c-1.1,1-2.3,2-3.6,2.8c2.2,4.8,4.7,9.4,6.5,14.4c0.4-0.2,0.5-0.3,0.9-0.5c0.4-0.3,0.8-0.5,1.2-0.8
			C509.4,788.6,511.7,786.9,513.8,785.1 M485,836.6c4.1,2.2,9.1,4,15.6,3.8c3-0.1,5.6-0.7,8.1-1.4c2.4-0.8,4.6-1.8,6.5-3
			c2.9-1.9,5.5-4.1,7.6-6.8c2.1-2.7,3.9-5.7,5-9.5c0.6-1.8,1-3.9,1.2-6.1c0.1-0.7,0.1-1.7,0.1-2.4c0-0.8,0-1.6-0.1-2.3
			c-0.2-2.2-0.7-4.1-1.3-5.9c-0.8-2.4-1.8-4.7-2.8-6.9c-1.1-2.2-2.2-4.4-3.3-6.5c-1.1-2.1-2.3-4.2-3.4-6.3c-0.3,0.2-0.5,0.4-0.7,0.6
			c-1.6,1.6-3.4,3-5.2,4.4c-2.1,1.6-4.2,3.1-6.4,4.5c1.1,2.5,2.4,4.8,3.7,7.2c1.3,2.4,2.5,4.8,3,7.8c0.3,1.6,0.3,3.4,0.1,5
			c-0.2,1.6-0.8,3-1.4,4.1c-1.3,2.4-3.1,4.2-5.4,5.5c-1.2,0.6-2.5,1.1-4,1.4c-1.6,0.3-3.4,0.2-5-0.1c-1.5-0.3-2.8-0.8-4-1.5
			c-1.1-0.7-2.2-1.5-3-2.5c-1.7-1.9-3-4.3-3.4-7.4c-0.4-3.6,0.7-6.7,1.8-9c-0.1-0.4-0.2-0.8-0.3-1.2c-0.8-2.5-1.7-5-2.7-7.4
			c-1.1-2.7-2.3-5.4-3.5-8c-3.5,2.9-6.4,6.4-8.6,10.6c-1.6,3.2-2.8,7-3.1,11.5c-0.1,1.5,0,3.1,0.1,4.6c0.1,1.4,0.3,2.8,0.7,4.1
			c0.9,3.9,2.4,7.1,4.4,9.9C477.6,831.2,481,834.4,485,836.6 M498.2,875.6c1.8,0,3.2-0.4,4.4-1c1.2-0.6,2.2-1.5,3-2.5
			c0.8-1,1.4-2.3,1.7-3.9c0.1-0.8,0.1-1.7,0.2-2.6c0.2-8.2,0.3-16.5,0.5-24.8c0,0,0,0,0,0c-2.6,0.7-5.6,1.2-9,1.1
			c-3.4-0.1-6.3-0.7-8.9-1.5c-0.1,7.3-0.3,14.7-0.4,22c0,1.9-0.2,3.8,0,5.4c0.2,1.5,0.8,2.9,1.5,3.9c0.7,1.1,1.7,2,2.8,2.7
			C495,875.1,496.4,875.6,498.2,875.6"/>
	</g>
</g>
<path class="st8" d="M261.9,507.7c0.9,0.9,2.1,1.4,3.4,1.4c1.2,0,2.4-0.5,3.4-1.4c1.9-1.9,1.9-4.9,0-6.7L230,462.5v-16.9l25.2,25
	c0.9,0.9,2.1,1.4,3.4,1.4c1.2,0,2.4-0.5,3.4-1.4c1.9-1.9,1.9-4.9,0-6.7L228.7,424c-0.4-0.4-1-0.8-1.5-1c-1.2-0.5-2.5-0.5-3.6,0
	c-0.6,0.2-1.1,0.6-1.5,1L188.6,464c-1.9,1.9-1.9,4.9,0,6.7c1.9,1.9,4.9,1.9,6.7,0l25.2-25v16.9L182,501c-1.9,1.9-1.9,4.9,0,6.7
	c1.9,1.9,4.9,1.9,6.7,0l31.8-24.1v15.9L171,549.1c-1.9,1.9-1.9,4.9,0,6.7c1.9,1.9,4.9,1.9,6.7,0l42.8-34.9l0,55.4
	c0,2.6,2.1,4.7,4.7,4.7s4.7-2.1,4.7-4.7l0-55.4l42.8,34.9c0.9,0.9,2.1,1.4,3.4,1.4c1.2,0,2.4-0.5,3.4-1.4c1.9-1.9,1.9-4.9,0-6.7
	L230,499.5v-15.9L261.9,507.7z"/>
<g>
	<path class="st2" d="M502,58.8c59.8,0,117.9,11.7,172.5,34.8c52.8,22.3,100.2,54.3,140.9,95s72.7,88.1,95,140.9
		c23.1,54.6,34.8,112.7,34.8,172.5s-11.7,117.9-34.8,172.5c-22.3,52.8-54.3,100.2-95,140.9c-40.7,40.7-88.1,72.7-140.9,95
		C619.9,933.3,561.9,945,502,945s-117.9-11.7-172.5-34.8c-52.8-22.3-100.2-54.3-140.9-95c-40.7-40.7-72.7-88.1-95-140.9
		c-23.1-54.6-34.8-112.7-34.8-172.5S70.6,384,93.7,329.4c22.3-52.8,54.3-100.2,95-140.9s88.1-72.7,140.9-95
		C384.2,70.5,442.2,58.8,502,58.8 M502,45.8C250.1,45.8,45.9,250,45.9,501.9S250.1,958,502,958s456.1-204.2,456.1-456.1
		S754,45.8,502,45.8L502,45.8z"/>
</g>
<text transform="matrix(1 0 0 1 447.8077 561.8374)" class="st6 st9 st10">R</text>
</svg>
